<svg xmlns="http://www.w3.org/2000/svg" viewBox="0 0 144 72.69"><defs><style>.cls-1{fill:#fff;}</style></defs><g id="Layer_2" data-name="Layer 2"><g id="Layer_1-2" data-name="Layer 1"><path class="cls-1" d="M52.67,34.63V55.47a17.2,17.2,0,1,1-34.4-.16V17.71a1.06,1.06,0,0,0-2.12,0v55H0V17.08A17.22,17.22,0,0,1,29.34,5,17.05,17.05,0,0,1,34.4,17.08V55a1.07,1.07,0,1,0,2.14,0V34.63Z"/><path class="cls-1" d="M144,29V45.22H125.73V55.85a16.87,16.87,0,0,1-1.48,6.54l0,.06,0,.07,0,0A17.21,17.21,0,0,1,91.31,55.7V52.12H107.5v2.8a1,1,0,1,0,2.08,0V48.43h0V17.08a17.19,17.19,0,0,1,34.38,0l0,.17v9.68H127.81v-9.2a1.05,1.05,0,0,0-1.06-1.06h-.09a1.08,1.08,0,0,0-1,1.08V29Z"/><path class="cls-1" d="M107.46,17V50.15H91.31V17.73a1.06,1.06,0,0,0-2.08-.26l0,.08V55.47a17.2,17.2,0,1,1-34.4-.16V17.71a1.08,1.08,0,0,0-1.08-1.05h-.09a1.09,1.09,0,0,0-1,1.09V32.64H36.54V17.08a17.2,17.2,0,0,1,34.4,0V55A1.06,1.06,0,0,0,72,56,1.07,1.07,0,0,0,73.06,55V17.08A17.12,17.12,0,0,1,81,2.73l0,0h0l.09-.06,0,0A17.18,17.18,0,0,1,107.46,17Z"/><path class="cls-1" d="M144,64.53a8.1,8.1,0,1,1-8.09-8.09A8.1,8.1,0,0,1,144,64.53Z"/></g></g></svg>