<svg xmlns="http://www.w3.org/2000/svg" viewBox="0 0 108.58 108.35"><defs><style>.cls-1{fill:#fafbfb;}</style></defs><g id="Layer_2" data-name="Layer 2"><g id="Layer_1-2" data-name="Layer 1"><path class="cls-1" d="M1.08,45.78l.1,1.3,9.81.65L10.92,49l-9,5.67,8,.37.32-1.86.47,0-.22,3.88L10,57l-.13-1.29-8.78-.59-.41.25-.16,1-.48,0L.19,53,7.81,48.1l-6.65-.31-.3,1.85-.48,0L.6,45.75Z"/><path class="cls-1" d="M13.4,36.86l.46.13-1.34,4.58-.46-.13.22-1.24-2.84.06-.9,3.09,2.34,1.49.54-1.21.46.13L11,46.83l-.46-.13.17-1.16-8.57-5.8.41-1.4L13,37.9ZM8.93,40.27l-5,.12,4.2,2.69Z"/><path class="cls-1" d="M7.56,28c1.26.7,2.54,1.39,3.86,2.08l.53.29c1.26.67,2.54,1.35,3.82,2l.79-1.2.42.23-2.47,4.65-.42-.23.54-1.31c-1.22-.69-2.49-1.36-3.78-2.05l-.55-.29c-1.29-.69-2.59-1.38-3.88-2l-.91,1.71,1.84,1.77L7,34.37,4.34,32.91l4.34-8.16,2.67,1.36-.38.71-2.5-.52Z"/><path class="cls-1" d="M17.27,15.33c1.05,1,2.13,2,3.22,2.92l.46.41c1.06.95,2.14,1.91,3.23,2.85l.92-.83.35.32-3.23,3.61-.35-.32.69-1c-1-1-2.09-1.93-3.3-3l-2.51,2.81c1.18,1.05,2.27,2,3.36,2.94l.86-.79.36.32-3.24,3.61-.35-.31.74-1L15.27,25l-.46-.41q-1.62-1.45-3.23-2.87l-.93.85-.35-.32,3.23-3.61.35.31-.69.95c1,1,2.09,1.92,3.17,2.88L18.87,20c-1.07-.95-2.14-1.91-3.22-2.82l-.87.8-.36-.32L17.65,14l.36.32Z"/><path class="cls-1" d="M33.93,14.72l.27.39-4,2.67L30,17.39l.95-.82-2.22-1.76-2.66,1.8.84,2.64,1.2-.59.26.4-2.66,1.79-.26-.4.87-.78L23.41,9.73l1.21-.82,8.32,6.33Zm-5.62-.23-3.94-3.11,1.52,4.75Z"/><path class="cls-1" d="M40.86,2l-1.15.61L43,11.89l-1.16.43L33.05,6.25l2.82,7.48,1.83-.44.17.44-3.66,1.34-.16-.45L35.19,14,32.25,5.7l-.38-.28-1,.24-.17-.45L33.9,4.05l7.5,5.07L39.05,2.89l-1.82.45-.16-.44L40.7,1.57Z"/><path class="cls-1" d="M56.43,2.78l-.8,0L54.91.6,52,.71c0,1.4.08,2.84.14,4.32L54,5l.16-1.56.7,0L55,7l-.7,0L54,5.46l-1.93.08v0c.06,1.52.11,3,.19,4.4l1.5.1,0,.48-5.19.19v-.47l1.25-.18c0-1.41-.07-2.85-.12-4.31l0-.61c-.06-1.46-.11-2.9-.21-4.34L48.26.78l0-.48L56.35,0Z"/><path class="cls-1" d="M65.6,11.84l-8.18-1.36L57.5,10l1.26.08c.27-1.39.51-2.81.75-4.24l.1-.61c.24-1.44.47-2.86.67-4.29L59.06.63l.07-.46L67,1.48l-.47,2.75-.8-.14-.27-2.31-2.8-.47c-.26,1.38-.5,2.8-.74,4.26l1.88.31.46-1.49L65,4.5,64.4,8l-.69-.12,0-1.5-1.89-.31v0c-.25,1.53-.5,3-.71,4.44l3.11.51,1-2.21.77.13Z"/><path class="cls-1" d="M73.93,15l-7.54-2.94.19-.44,1.21.34c.54-1.29,1.06-2.61,1.46-3.65l.36-.93c.53-1.35,1.06-2.7,1.54-4.06L70,2.78l.17-.44,4.72,1.84-.17.44-1.33-.38c-.53,1.31-1,2.64-1.51,3.81l-.33.85c-.5,1.29-1,2.65-1.53,4L72.75,14l1.59-2.16.7.28Z"/><path class="cls-1" d="M81.31,19.71l-6.8-4.38.27-.39,1.11.57c.8-1.16,1.56-2.35,2.17-3.29l.54-.83c.78-1.23,1.56-2.44,2.31-3.67l-1-.78.26-.4,4.26,2.74-.26.4L83,9c-.79,1.18-1.56,2.38-2.24,3.44l-.5.76c-.75,1.17-1.53,2.39-2.3,3.63l2.45,1.58,2-1.8.63.41Z"/><path class="cls-1" d="M92.48,23.33c-2.59,2.56-5.54,2.24-7.41.36s-2.17-4.83.42-7.4,5.56-2.21,7.41-.35S95.05,20.78,92.48,23.33Zm-7,0c1.2,1.21,3.25.29,5.29-1.74s3-4,1.78-5.26S89.26,16,87.24,18,84.24,22.1,85.45,23.32Z"/><path class="cls-1" d="M105,35.21l-.77-1-10,2.22-.62-1.14,5.75-5.82-8,1.69L90.76,30l7.29-7.31-.37-.88.42-.23,2.27,4.15L100,26l-.74-1.09-5.59,5.23,7.49-1.69-.5-1.23L101,27l2.19,4-.42.22L102,30l-5.51,5.37,7.4-1.86-.47-1.24.42-.23,1.62,3Z"/><path class="cls-1" d="M102.85,43c-.41,2.25-1,3.2-2.58,3.58-1.8.44-3.38-.62-4-3.18a6.47,6.47,0,0,1,0-3.36l2.36-.49.2.79-2.19,1.31A3.75,3.75,0,0,0,96.79,43c.33,1.34,1.15,1.93,2.21,1.67s1.32-.74,1.53-2l.12-.72c.37-2,1-3.21,2.67-3.61,1.83-.46,3.24.77,3.79,3a5.23,5.23,0,0,1-.09,3l-2.25.42-.19-.78,2.08-1.25a2.12,2.12,0,0,0,0-.93c-.3-1.18-1.08-1.79-2.1-1.54s-1.31.87-1.51,1.93Z"/><path class="cls-1" d="M107.44,62.86l-.1-1.3-9.8-.71.07-1.23L106.69,54l-8-.41-.32,1.86-.48,0,.24-3.89.48,0,.11,1.3,8.79.63.41-.24.17-1,.48,0-.21,3.37-7.66,4.84,6.66.35.31-1.85.48,0-.24,3.86Z"/><path class="cls-1" d="M95.06,71.73l-.45-.14L96,67l.46.14-.22,1.24,2.83,0,.92-3.09-2.33-1.5L97.08,65l-.46-.13.92-3.08.46.14-.17,1.16,8.54,5.85L106,70.3l-10.45.39Zm4.49-3.4,5-.09-4.19-2.71Z"/><path class="cls-1" d="M100.86,80.58c-1.26-.71-2.54-1.4-3.84-2.11l-.53-.28c-1.26-.68-2.54-1.37-3.81-2l-.81,1.19-.41-.23L94,72.5l.42.23L93.82,74c1.22.68,2.49,1.37,3.78,2.06l.54.29c1.29.7,2.59,1.4,3.87,2l.91-1.7L101.1,75l.39-.73,2.61,1.47-4.38,8.13-2.66-1.37.38-.71,2.5.53Z"/><path class="cls-1" d="M91.08,93.21c-1-1-2.12-2-3.2-2.93l-.45-.42c-1.06-1-2.13-1.92-3.22-2.87l-.92.83-.35-.32,3.25-3.59.35.32-.7,1c1,1,2.08,1.93,3.28,3l2.52-2.79c-1.17-1.06-2.25-2-3.34-3l-.86.79-.35-.32,3.24-3.6.36.32-.75,1c1,1,2.11,1.93,3.19,2.9l.46.42c1.08,1,2.15,1.94,3.22,2.89l.93-.84.35.31-3.25,3.6-.35-.32.69-.94c-1-1-2.08-1.93-3.14-2.9l-2.53,2.79c1.06,1,2.13,1.93,3.2,2.84l.88-.8.35.32-3.25,3.6-.35-.32Z"/><path class="cls-1" d="M74.41,93.75l-.26-.4,4-2.65.27.4-1,.81,2.21,1.77,2.68-1.78-.84-2.65-1.19.58L80,89.44l2.67-1.78.26.4-.87.78,2.83,10-1.21.81-8.29-6.38ZM80,94,84,97.14l-1.49-4.76Z"/><path class="cls-1" d="M67.42,106.43l1.15-.61-3.23-9.29,1.16-.41,8.76,6.1-2.79-7.49-1.84.43-.16-.44,3.67-1.32.16.45-1.15.62,2.91,8.32.38.27,1-.23.16.45-3.17,1.14-7.48-5.11,2.32,6.25,1.82-.44.16.45-3.64,1.3Z"/><path class="cls-1" d="M51.87,105.57l.79,0,.72,2.22,2.95-.1c0-1.4-.06-2.84-.11-4.32l-1.92.06L54.14,105l-.7,0-.11-3.6.69,0,.25,1.55,1.93-.07v0c-.05-1.52-.1-3-.17-4.4l-1.5-.11,0-.47,5.19-.18,0,.48-1.26.17c0,1.41,0,2.85.1,4.31l0,.61c.05,1.46.1,2.9.19,4.34l1.26.07,0,.47-8.12.27Z"/><path class="cls-1" d="M42.74,96.45l8.18,1.41-.08.47-1.26-.09c-.28,1.39-.53,2.81-.77,4.24l-.11.61c-.24,1.43-.49,2.86-.69,4.28l1.22.33-.08.47-7.89-1.36.49-2.75.79.14.26,2.32,2.8.48c.26-1.37.51-2.79.76-4.26l-1.88-.32-.47,1.5-.68-.12.6-3.49.69.12-.06,1.49,1.89.33v0c.27-1.54.52-3,.74-4.44l-3.1-.53-1,2.21-.77-.14Z"/><path class="cls-1" d="M34.44,93.24l7.52,3-.19.43-1.2-.34c-.56,1.29-1.08,2.6-1.49,3.64l-.36.93c-.54,1.35-1.07,2.69-1.56,4.05l1.13.57-.17.44-4.72-1.87.18-.44,1.32.39c.55-1.31,1.07-2.63,1.53-3.8l.34-.85c.51-1.29,1-2.64,1.55-4l-2.7-1.07L34,96.44l-.7-.27Z"/><path class="cls-1" d="M27.07,88.5l6.78,4.42-.27.39-1.12-.58c-.79,1.15-1.57,2.34-2.18,3.28l-.54.83c-.79,1.22-1.58,2.43-2.33,3.66l1,.78-.26.4L23.9,98.91l.26-.4,1.21.65c.8-1.17,1.58-2.37,2.27-3.42l.49-.77c.76-1.16,1.55-2.38,2.32-3.61L28,89.77l-2,1.79-.64-.41Z"/><path class="cls-1" d="M15.91,84.82c2.6-2.55,5.56-2.21,7.41-.32s2.15,4.85-.46,7.41-5.58,2.17-7.41.3S13.32,87.36,15.91,84.82Zm7,.05c-1.19-1.22-3.24-.31-5.3,1.71s-3,4-1.81,5.26,3.26.3,5.3-1.7S24.15,86.1,22.94,84.87Z"/><path class="cls-1" d="M3.48,72.9l.76,1,10-2.17.62,1.14L9.06,78.69l8-1.65.6,1.12-7.33,7.28.37.89-.42.22L8.05,82.39l.42-.23.74,1.1,5.62-5.21-7.5,1.66.48,1.23-.41.23-2.18-4,.42-.23.85,1.23L12,72.8,4.61,74.62l.47,1.25-.42.22-1.6-3Z"/><path class="cls-1" d="M5.65,65.08c.42-2.25,1.06-3.19,2.59-3.56,1.81-.44,3.38.64,4,3.19a6.39,6.39,0,0,1-.05,3.37l-2.36.47-.19-.79,2.19-1.29a3.77,3.77,0,0,0-.12-1.39c-.32-1.34-1.14-1.94-2.2-1.68S8.19,64.14,8,65.34l-.13.72c-.37,2-1,3.21-2.68,3.6-1.84.45-3.25-.78-3.78-3a5.14,5.14,0,0,1,.11-2.95l2.25-.41.19.78-2.1,1.24a2.28,2.28,0,0,0,0,.93C2.17,67.43,3,68.05,4,67.8s1.32-.86,1.53-1.92Z"/></g></g></svg>