<?xml version="1.0" encoding="UTF-8" standalone="no"?><!DOCTYPE svg PUBLIC "-//W3C//DTD SVG 1.1//EN" "http://www.w3.org/Graphics/SVG/1.1/DTD/svg11.dtd"><svg width="100%" height="100%" viewBox="0 0 7220 7220" version="1.1" xmlns="http://www.w3.org/2000/svg" xmlnsXlink="http://www.w3.org/1999/xlink" xmlSpace="preserve" xmlnsSerif="http://www.serif.com/" style="fill-rule:evenodd;clip-rule:evenodd;stroke-linejoin:round;stroke-miterlimit:2;"><rect id="MM1" x="0" y="0.267" width="7219.25" height="7219.25" style="fill:none;"/><g id="BG"><path d="M5495.75,3346.54c0,1041.86 -844.596,1886.45 -1886.46,1886.45c-1041.86,0 -1886.45,-844.596 -1886.45,-1886.45c-0,-1041.86 844.595,-1886.46 1886.45,-1886.46c1041.86,-0 1886.46,844.595 1886.46,1886.46" style="fill:#b2492d;fill-rule:nonzero;"/><path d="M4472.5,2898.45c-0,30.517 -1.63,60.679 -4.788,90.384c-1.954,18.437 -4.496,36.679 -7.621,54.725c-6.775,39.35 -16.287,77.745 -28.341,115.045c-2.8,8.663 -5.73,17.296 -8.825,25.83c-12.767,35.633 -27.884,70.129 -45.18,103.35c-29.054,56.058 -64.229,108.433 -104.654,156.283c-20.908,24.754 -43.221,48.304 -66.804,70.45c-151.429,142.637 -355.429,229.996 -579.85,229.996c-3.196,-0 -6.387,-0.034 -9.579,-0.067c-102.471,-1.108 -200.613,-20.487 -291.258,-54.979c-109.867,-41.792 -208.792,-105.863 -291.23,-186.671c-36.679,-35.862 -70.066,-75.083 -99.704,-117.129c-24.625,-34.858 -46.646,-71.663 -65.829,-110.163c-33.55,-67.229 -58.404,-139.57 -73.058,-215.562c-2.217,-11.304 -4.171,-22.733 -5.896,-34.2c-3.779,-24.95 -6.45,-50.263 -7.95,-75.863c-0.163,-2.408 -0.292,-4.85 -0.421,-7.262c-0.75,-14.625 -1.142,-29.346 -1.142,-44.167c0,-98.729 16.905,-193.483 47.98,-281.554c115.012,-326.017 424.091,-560.408 788.508,-564.446c3.192,-0.033 6.383,-0.066 9.579,-0.066c467.279,-0 846.063,378.783 846.063,846.066" style="fill:#1b5632;fill-rule:nonzero;"/><path d="M2145.34,4009.43c-185.392,-102.791 -252.575,-337.2 -149.804,-522.554l367.029,-661.954c15.687,-28.292 5.433,-64.071 -22.863,-79.758c-28.258,-15.671 -64.033,-5.417 -79.72,22.879l0.07,0.037l-93.133,167.975c-0.333,0.596 -0.683,1.229 -1.05,1.804c-25.579,45.634 -59.204,84.042 -98.125,114.409c-86.029,67.191 -197.871,95.221 -305.967,75.591c43.096,-21.795 80.409,-56.316 105.6,-101.75c41.775,-75.345 40.505,-162.92 4.267,-234.404c3.983,-3.866 7.529,-8.433 10.396,-13.608l93.133,-167.967l-0.071,-0.041c102.775,-185.355 337.234,-252.555 522.554,-149.805c185.355,102.775 252.555,337.238 149.784,522.592l-367.029,661.954c-15.667,28.259 -5.413,64.034 22.883,79.725c28.258,15.667 64.033,5.413 79.704,-22.85l215.475,-388.616c29.229,-52.717 69.129,-95.888 115.521,-128.271c116.629,-81.554 274.429,-95.059 407.067,-21.513c185.25,102.713 252.479,336.959 149.925,522.254l-215.475,388.617l-0.95,-0.525c-18.925,-86.779 -50.505,-170.729 -93.825,-248.762l6.987,-264.046l18.421,-33.221c15.433,-28.25 5.117,-63.833 -23.038,-79.442c-1.162,-0.641 -2.341,-1.254 -3.525,-1.771c-27.654,-13.033 -61.187,-2.504 -76.233,24.63l-215.475,388.625c-85.346,153.929 -261.512,226.354 -424.958,187.629c-33.342,-7.909 -66.184,-20.454 -97.575,-37.863" style="fill:#1b5632;fill-rule:nonzero;"/><path d="M1892.88,2958.99c-1.708,7.625 -3.75,15.25 -6.208,22.796c-4.917,15.083 -11.292,29.954 -19.292,44.329c-25.208,45.421 -62.5,79.962 -105.583,101.75c-40.167,-7.292 -79.834,-21.167 -117.459,-42.042l157.959,-284.833c23.125,12.792 51.291,8.292 69.333,-9.288c6.917,13.621 12.542,27.871 16.875,42.455c1.208,4.166 2.333,8.379 3.375,12.625c1.042,4.375 1.958,8.795 2.792,13.208c0.125,0.796 0.25,1.583 0.416,2.379c1.125,6.583 2,13.246 2.625,19.917c0.25,2.704 0.459,5.375 0.625,8.121c1.334,22.75 -0.416,45.833 -5.458,68.583" style="fill:#1b5632;fill-rule:nonzero;"/><path d="M1892.88,2958.99c-1.708,7.625 -3.75,15.25 -6.208,22.796c-4.917,15.083 -11.292,29.954 -19.292,44.329c-25.208,45.421 -62.5,79.962 -105.583,101.75c-71.459,36.167 -158.959,37.375 -234.25,-4.375c-48.417,-26.833 -84.417,-67.371 -105.875,-114.121c-8.5,-3.292 -16.834,-7.212 -25.042,-11.75c-93.792,-52.004 -130.375,-167.296 -85.958,-263.129c2.083,-4.454 4.333,-8.917 6.75,-13.288c12.916,-23.25 29.666,-42.962 49.041,-58.833c62.542,-51.129 152.417,-61.962 227.375,-20.421c8.167,4.542 15.917,9.542 23.209,15.004l0.041,0.042c51.042,-6.587 104.459,2.454 152.875,29.292c45.375,25.166 79.875,62.412 101.667,105.416c6.917,13.621 12.542,27.871 16.875,42.455c1.208,4.166 2.333,8.379 3.375,12.625c1.042,4.375 1.958,8.795 2.792,13.208c0.125,0.796 0.25,1.583 0.416,2.379c1.125,6.583 2,13.246 2.625,19.917c0.25,2.704 0.459,5.375 0.625,8.121c1.334,22.75 -0.416,45.833 -5.458,68.583" style="fill:#1b5632;fill-rule:nonzero;"/><path d="M5137.09,3085.83c-162.208,136.371 -405.208,115.333 -541.583,-46.917l-487.042,-579.375c-20.792,-24.75 -57.875,-27.962 -82.625,-7.129c-24.75,20.796 -27.958,57.879 -7.167,82.588l285.917,340.166c38.792,46.125 64.833,98.834 78.5,153.709c34.5,138.083 -9.292,290.291 -125.375,387.875c-162.167,136.291 -404.958,115.375 -541.375,-46.63l-285.917,-340.162l0.834,-0.708c87.833,13.333 177.5,13.875 265.875,1.287l244.083,100.921l24.458,29.083c20.875,24.5 57.792,27.584 82.417,6.875c1.042,-0.875 2,-1.75 2.917,-2.666c22.041,-21.167 24.208,-56.25 4.25,-80l-285.917,-340.167c-113.25,-134.708 -117.917,-325.125 -23.333,-463.917c19.291,-28.333 42.75,-54.5 70.208,-77.625c162.292,-136.375 405.208,-115.333 541.583,46.875l487.042,579.417c20.833,24.75 57.917,27.958 82.667,7.167c24.75,-20.792 27.958,-57.875 7.125,-82.667l-0.042,0.083l-123.625,-147.041c-0.417,-0.5 -0.875,-1.084 -1.292,-1.625c-33.458,-40.209 -57.333,-85.334 -71.791,-132.542c-32,-104.333 -18.209,-218.833 38.791,-312.75c0.292,3 0.667,5.996 1.084,9c0.416,3 0.875,5.958 1.416,8.958c0.542,2.959 1.125,5.959 1.75,8.917c0.667,2.958 1.334,5.917 2.084,8.875c0.75,2.958 1.541,5.917 2.416,8.833c1.709,5.875 3.667,11.667 5.792,17.417c1.083,2.875 2.25,5.75 3.417,8.579c9.5,22.754 22.583,44.504 39.333,64.379c4.625,5.5 9.458,10.792 14.458,15.792c3.292,3.333 6.709,6.583 10.209,9.708c10.416,9.334 21.458,17.667 33.041,25c3.834,2.459 7.75,4.75 11.667,6.959l0.042,-0c3.958,2.208 7.958,4.333 12,6.287c42.333,20.671 89.583,28.838 135.958,24.046c2.167,5.083 5.167,10.042 9,14.583l123.583,147l0.042,-0.041c136.375,162.25 115.333,405.208 -46.875,541.583" style="fill:#1b5632;fill-rule:nonzero;"/><path d="M4785.42,2204.53c1.708,5.875 3.666,11.667 5.791,17.417c-2.166,-5.75 -4.083,-11.542 -5.791,-17.417" style="fill:#1b5632;fill-rule:nonzero;"/><path d="M4785.42,2204.53c1.708,5.875 3.666,11.667 5.791,17.417c-2.166,-5.75 -4.083,-11.542 -5.791,-17.417" style="fill:#1b5632;fill-rule:nonzero;"/><path d="M5290.5,2176.78c-7.167,5.996 -14.625,11.458 -22.333,16.333c-12.084,50 -39.667,96.667 -82.042,132.292c-39.708,33.375 -86.792,52.291 -134.792,57.291c-46.375,4.792 -93.625,-3.375 -135.958,-24.045c-4.042,-1.996 -8.042,-4.08 -12,-6.288l-0.042,0c-3.958,-2.25 -7.833,-4.542 -11.666,-6.958c-11.584,-7.334 -22.625,-15.667 -33.042,-25c-3.5,-3.125 -6.875,-6.379 -10.208,-9.709c-5,-5.004 -9.834,-10.291 -14.459,-15.791c-16.75,-19.875 -29.833,-41.625 -39.333,-64.379c-1.167,-2.83 -2.333,-5.705 -3.417,-8.58c-2.125,-5.75 -4.083,-11.541 -5.791,-17.416c-0.875,-2.917 -1.667,-5.875 -2.417,-8.834c-0.75,-2.958 -1.417,-5.916 -2.083,-8.875c-0.625,-2.958 -1.209,-5.962 -1.75,-8.916c-0.542,-3 -1,-5.959 -1.417,-8.959c-0.417,-3.004 -0.792,-6 -1.083,-9c-8.25,-79.666 21.875,-161.833 87.791,-217.208c42.375,-35.625 93.084,-54.754 144.417,-58.083c6.125,-6.75 12.75,-13.171 19.958,-19.167c82.084,-69.042 202.834,-62 276.459,13.75c3.416,3.538 6.791,7.208 10,11.083c17.125,20.334 29.541,43.042 37.416,66.792c25.375,76.704 3.375,164.5 -62.208,219.667" style="fill:#1b5632;fill-rule:nonzero;"/><path d="M4747.42,3796.62c0,6.916 -0.083,13.833 -0.208,20.708c-0.375,22.042 -1.375,43.875 -3.042,65.542c-5.291,70.087 -16.958,138.375 -34.458,204.291c-6.458,24.463 -13.75,48.584 -21.792,72.334c-13.458,39.75 -29.083,78.5 -46.708,116.125c-17.917,38.291 -37.958,75.421 -59.917,111.208c-36.208,59.083 -77.708,114.583 -123.833,165.792c-206.958,229.958 -506.917,374.541 -840.583,374.541c-280.792,0 -537.709,-102.375 -735.417,-271.875c-15.083,-12.916 -29.833,-26.25 -44.167,-39.916c-21.166,-20.125 -41.5,-41.042 -61.041,-62.75c-23.125,-25.667 -45.084,-52.454 -65.792,-80.209c-8.833,-11.829 -17.458,-23.833 -25.833,-36.041c-10.584,-15.371 -20.792,-31.042 -30.584,-47c-1.666,-2.625 -3.291,-5.25 -4.875,-7.917c-10.166,-16.75 -19.916,-33.792 -29.166,-51.125c-0.375,-0.667 -0.75,-1.417 -1.125,-2.125c-13.042,-24.417 -25.25,-49.417 -36.459,-74.875c-0.333,-0.583 -0.541,-1.167 -0.791,-1.75c-7.5,-17.037 -14.584,-34.292 -21.25,-51.746c-14.042,-36.671 -26.167,-74.296 -36.375,-112.712c-12.084,-45.584 -21.417,-92.292 -27.709,-139.917c-5.208,-38.871 -8.416,-78.417 -9.541,-118.5c-0.125,-4.958 -0.25,-9.954 -0.292,-14.958c-0.125,-5.709 -0.167,-11.417 -0.167,-17.125c0,-101.584 13.417,-200 38.5,-293.625c10.792,-40.25 23.75,-79.625 38.792,-117.959c41.833,-107.041 99.542,-206.166 170.25,-294.458c2.583,-10.292 5.333,-20.5 8.333,-30.625c10.917,-37.792 24.25,-74.537 39.75,-110.083l3.25,-7.25c56.292,-125.834 140.292,-236.538 244.209,-324.334c158.625,-134.041 363.625,-214.833 587.5,-214.833c388.291,0 719.916,243.083 850.833,585.375c12.667,33.046 23.417,67 32.167,101.75c145.125,181.25 235.541,408.083 246.416,655.583c0.75,16.709 1.125,33.542 1.125,50.459" style="fill:#3e9261;fill-rule:nonzero;"/><path d="M4222.97,2293.2c-68.521,-200.604 -287.421,-308.038 -487.984,-239.529l-716.271,244.654c-30.612,10.458 -64.025,-5.938 -74.479,-36.554c-10.446,-30.58 5.95,-63.988 36.567,-74.446l0.025,0.075l181.754,-62.079c0.646,-0.221 1.333,-0.455 1.967,-0.717c49.425,-17.133 93.154,-43.471 129.904,-76.433c81.296,-72.838 128.596,-177.992 128.317,-287.863c-29.046,38.583 -69.605,69.233 -118.763,86.025c-81.529,27.85 -167.508,11.167 -231.492,-37.1c-4.504,3.242 -9.625,5.929 -15.225,7.838l-181.75,62.079l-0.025,-0.075c-200.562,68.508 -308.025,287.462 -239.529,487.987c68.504,200.559 287.459,308.017 488.021,239.513l716.267,-244.654c30.579,-10.446 63.987,5.954 74.446,36.57c10.445,30.575 -5.955,63.984 -36.53,74.43l-420.508,143.629c-57.042,19.487 -106.562,51.158 -146.621,91.121c-100.829,100.429 -141.916,253.383 -92.896,396.904c68.467,200.45 287.205,307.9 487.667,239.596l420.508,-143.63l-0.354,-1.029c-82.083,-33.916 -159.158,-79.796 -228.341,-136.191l-261.142,-39.642l-35.946,12.283c-30.529,10.213 -63.737,-6.212 -74.142,-36.675c-0.429,-1.258 -0.82,-2.529 -1.12,-3.783c-7.959,-29.513 8.316,-60.671 37.675,-70.7l420.508,-143.633c166.558,-56.892 268.887,-217.538 259.567,-385.25c-1.905,-34.217 -8.475,-68.755 -20.075,-102.721" style="fill:#3e9261;fill-rule:nonzero;"/><path d="M3402.1,1637.3l-308.238,105.283c8.55,25.025 -0.871,51.963 -21.333,66.63c63.983,48.258 149.95,64.945 231.479,37.1c49.162,-16.796 89.717,-47.409 118.767,-86.005c-0.105,-40.816 -6.767,-82.295 -20.675,-123.008" style="fill:#3e9261;fill-rule:nonzero;"/><path d="M3422.79,1760.33c-29.084,38.583 -69.625,69.208 -118.792,86c-81.542,27.833 -167.5,11.166 -231.458,-37.125c-38.542,-29.042 -69.084,-69.542 -85.875,-118.625c-17.875,-52.417 -17.375,-106.625 -1.917,-155.667l0,-0.042c-4.125,-8.125 -7.667,-16.666 -10.708,-25.496c-27.667,-81.083 -1.167,-167.67 60.166,-220.212c19,-16.292 41.375,-29.333 66.542,-37.917c4.75,-1.625 9.5,-3.041 14.292,-4.291c102.125,-26.834 209.166,29.458 243.833,130.958c3.042,8.875 5.458,17.833 7.167,26.75c42.25,29.333 75.791,71.917 93.708,124.333c27.833,81.459 11.208,167.375 -36.958,231.334" style="fill:#50aa77;fill-rule:nonzero;"/><path d="M3099.67,1466.48l-18.746,37.062c-64.562,127.679 -26.975,237.733 102.213,299.242l37.5,17.846l18.746,-37.059c64.566,-127.683 26.975,-237.737 -102.213,-299.246l-37.5,-17.845Z" style="fill:#f4f5f6;fill-rule:nonzero;"/><path d="M3136.11,1573.15c-38.883,13.283 -59.637,55.567 -46.354,94.45c13.279,38.883 55.567,59.633 94.45,46.354c38.883,-13.283 59.633,-55.567 46.354,-94.45c-13.283,-38.883 -55.566,-59.637 -94.45,-46.354" style="fill:#89b59c;fill-rule:nonzero;"/><path d="M3149.5,1612.37c-17.226,5.879 -26.417,24.613 -20.534,41.838c5.884,17.225 24.613,26.416 41.838,20.537c17.225,-5.883 26.421,-24.617 20.537,-41.842c-5.883,-17.225 -24.616,-26.416 -41.841,-20.533" style="fill:#5b5e5d;fill-rule:nonzero;"/><path d="M3099.67,1466.48l-18.746,37.062c-1.62,3.196 -3.162,6.367 -4.65,9.546c118.384,60.696 153.855,164.55 97.346,284.987c3.121,1.605 6.275,3.171 9.517,4.709l37.5,17.846l18.746,-37.059c64.566,-127.683 26.975,-237.737 -102.213,-299.246l-37.5,-17.845Z" style="fill:#3e9261;fill-rule:nonzero;"/><path d="M5537.49,3550.85l85.258,29.121c-2.896,8.475 1.629,17.696 10.109,20.596c1.325,0.45 2.641,0.725 3.987,0.808c-1.25,4.771 -2.675,9.55 -4.296,14.3c-8.591,25.15 -21.633,47.508 -37.904,66.525c-49.567,-22.163 -75.033,-79.013 -57.154,-131.35" style="fill:#b2492d;fill-rule:nonzero;"/><path d="M4590.61,2493.44c200.6,68.517 308.037,287.417 239.529,487.983l-244.654,716.267c-10.459,30.617 5.937,64.025 36.554,74.483c30.579,10.442 63.987,-5.954 74.446,-36.57l-0.075,-0.025l62.079,-181.75c0.221,-0.646 0.454,-1.334 0.717,-1.967c17.133,-49.425 43.47,-93.158 76.429,-129.904c72.846,-81.3 177.996,-128.6 287.862,-128.317c-38.579,29.046 -69.229,69.6 -86.021,118.763c-27.845,81.525 -11.162,167.508 37.1,231.487c-3.241,4.504 -5.925,9.629 -7.837,15.229l-62.079,181.75l0.075,0.025c-68.509,200.559 -287.459,308.021 -487.984,239.529c-200.562,-68.504 -308.025,-287.458 -239.516,-488.02l244.654,-716.267c10.446,-30.579 -5.954,-63.992 -36.567,-74.45c-30.579,-10.442 -63.987,5.954 -74.433,36.533l-143.633,420.509c-19.484,57.041 -51.155,106.562 -91.113,146.616c-100.433,100.834 -253.387,141.921 -396.908,92.896c-200.45,-68.462 -307.896,-287.2 -239.596,-487.667l143.633,-420.504l1.025,0.35c33.917,82.088 79.796,159.159 136.188,228.342l39.646,261.146l-12.28,35.946c-10.216,30.529 6.209,63.737 36.671,74.141c1.259,0.425 2.529,0.817 3.784,1.121c29.516,7.958 60.67,-8.321 70.7,-37.679l143.633,-420.504c56.892,-166.559 217.537,-268.892 385.25,-259.567c34.217,1.904 68.754,8.471 102.721,20.075" style="fill:#3e9261;fill-rule:nonzero;"/><path d="M5246.5,3314.31l-105.284,308.238c-25.029,-8.55 -51.962,0.87 -66.629,21.333c-48.258,-63.988 -64.946,-149.954 -37.1,-231.483c16.792,-49.163 47.409,-89.713 86,-118.767c40.821,0.108 82.296,6.767 123.013,20.679" style="fill:#3e9261;fill-rule:nonzero;"/><path d="M5636.84,3601.37c-1.25,4.791 -2.667,9.541 -4.292,14.295c-8.583,25.167 -21.625,47.542 -37.917,66.538c-52.541,61.333 -139.083,87.833 -220.208,60.171c-8.833,-3.046 -17.375,-6.584 -25.5,-10.709c-49.083,15.455 -103.292,15.959 -155.667,-1.916c-49.125,-16.796 -89.625,-47.338 -118.666,-85.879c-48.25,-63.955 -64.959,-149.913 -37.084,-231.459c16.792,-49.162 47.375,-89.708 86,-118.787c63.959,-48.171 149.875,-64.792 231.334,-36.959c52.375,17.875 94.958,51.455 124.333,93.709c8.958,1.708 17.833,4.121 26.708,7.162c101.5,34.671 157.792,141.709 130.959,243.834" style="fill:#50aa77;fill-rule:nonzero;"/><path d="M5417.32,3616.74l-37.063,18.746c-127.683,64.567 -237.737,26.975 -299.241,-102.213l-17.85,-37.5l37.062,-18.741c127.684,-64.567 237.738,-26.979 299.242,102.208l17.85,37.5Z" style="fill:#f4f5f6;fill-rule:nonzero;"/><path d="M5310.65,3580.3c-13.284,38.879 -55.567,59.638 -94.45,46.354c-38.884,-13.283 -59.638,-55.566 -46.355,-94.45c13.28,-38.883 55.567,-59.633 94.45,-46.354c38.884,13.284 59.638,55.567 46.355,94.45" style="fill:#89b59c;fill-rule:nonzero;"/><path d="M5271.44,3566.91c-5.883,17.225 -24.616,26.417 -41.841,20.533c-17.221,-5.883 -26.417,-24.612 -20.534,-41.837c5.884,-17.225 24.617,-26.421 41.842,-20.538c17.225,5.884 26.417,24.617 20.533,41.842" style="fill:#5b5e5d;fill-rule:nonzero;"/><path d="M5417.32,3616.74l-37.063,18.746c-3.195,1.625 -6.366,3.162 -9.545,4.65c-60.696,-118.379 -164.55,-153.854 -284.988,-97.342c-1.604,-3.121 -3.171,-6.279 -4.708,-9.521l-17.85,-37.5l37.062,-18.741c127.684,-64.567 237.738,-26.979 299.242,102.208l17.85,37.5Z" style="fill:#3e9261;fill-rule:nonzero;"/><path d="M3745.57,5556.64l0,418.033c0,71.075 -57.654,128.729 -128.725,128.729c-3.713,0 -7.363,-0.162 -10.979,-0.491c-65.142,-5.471 -116.475,-59.575 -117.679,-125.863c-0.034,-0.779 -0.034,-1.591 -0.034,-2.375l0,-418.033c0,-0.946 0,-1.921 0.034,-2.863c1.429,-66.091 52.666,-119.9 117.679,-125.37c3.616,-0.325 7.266,-0.492 10.979,-0.492c69.021,-0 125.371,54.333 128.596,122.567c0.096,2.025 0.129,4.075 0.129,6.158" style="fill:#fdfcf7;fill-rule:nonzero;"/><path d="M3857.81,6418.42l101.575,203.154c37.35,74.696 -14.912,164.071 -98.395,166.187c-1.055,0.025 -2.117,0.038 -3.18,0.038c-1.062,-0 -2.12,-0.013 -3.179,-0.038c-83.483,-2.116 -135.746,-91.491 -98.396,-166.187l101.575,-203.154Z" style="fill:#b2492d;fill-rule:nonzero;"/><path d="M3369.27,6076.85l101.575,203.154c37.35,74.696 -14.913,164.071 -98.396,166.188c-1.058,0.025 -2.117,0.037 -3.179,0.037c-1.063,0 -2.125,-0.012 -3.179,-0.037c-83.484,-2.117 -135.746,-91.492 -98.396,-166.188l101.575,-203.154Z" style="fill:#b2492d;fill-rule:nonzero;"/><path d="M4194.84,5388.16l0,230.708c0,171.5 -186.541,315.504 -438.291,355c-44.709,7.046 -91.5,10.792 -139.667,10.792c-1.167,-0 -2.375,-0 -3.542,-0.042c-39.083,-0.125 -77.291,-2.75 -114.166,-7.583c-262.792,-34.375 -460.292,-181.705 -460.292,-358.167l0,-230.708c0,-15.959 1.625,-31.667 4.75,-47.084c19.417,-95.666 97.208,-179.746 210,-237.5c38.75,-19.833 81.667,-36.537 127.708,-49.579c5.625,-1.587 11.334,-3.125 17.084,-4.587c66.375,-17.209 138.916,-26.788 214.916,-27.042c1.167,-0.042 2.375,-0.042 3.542,-0.042c77.292,0 151,9.584 218.417,27.084c5.75,1.416 11.416,3 17.083,4.587c46.083,13.042 88.958,29.746 127.708,49.579c112.834,57.754 190.584,141.834 210,237.5c3.125,15.417 4.75,31.125 4.75,47.084" style="fill:#b2492d;fill-rule:nonzero;"/><path d="M4194.84,5300.45l0,230.708c0,171.542 -186.541,315.5 -438.291,355c-44.709,7.042 -91.5,10.792 -139.667,10.792c-1.083,0 -2.25,0 -3.333,-0.042l-0.209,0c-39.125,-0.125 -77.291,-2.708 -114.208,-7.541c-262.75,-34.417 -460.25,-181.709 -460.25,-358.209l0,-230.708c0,-87.583 48.625,-167.958 129.708,-230.958c105.292,-81.75 265.292,-134.125 444.75,-134.792c1.167,-0.042 2.375,-0.042 3.542,-0.042c180.833,0 342.25,52.542 448.25,134.834c81.083,63 129.708,143.375 129.708,230.958" style="fill:#bdccc4;fill-rule:nonzero;"/><path d="M4194.84,5336.7l0,194.458c0,171.542 -186.541,315.5 -438.291,355c-44.709,7.042 -91.5,10.792 -139.667,10.792c-1.083,-0 -2.25,-0 -3.333,-0.042c0.208,-73.583 0.541,-189.958 0.916,-335.125c0.792,0.042 1.625,0.042 2.417,0.042c47.5,-0 94.125,-3.875 139.542,-11.334c165.333,-27.166 314.708,-101.791 433.666,-209.416c1.625,-1.459 3.209,-2.917 4.75,-4.375" style="fill:#a5b3aa;fill-rule:nonzero;"/><path d="M2637.67,4147.91c-0,26.371 -6.125,51.292 -17.084,73.412c10.375,17.834 16.5,38.421 17.042,60.375c0.042,1.084 0.042,2.171 0.042,3.255l-0,127.162c-0,70.213 -56.917,127.129 -127.125,127.129c-70.209,0 -127.125,-56.916 -127.125,-127.129l-0,-123.371c-46.834,-29.421 -78,-81.504 -78,-140.833l-0,-98.958c-0,-1.421 0.041,-2.838 0.083,-4.255c2.25,-89.787 75.75,-161.87 166.042,-161.87c90.333,-0 163.833,72.083 166.083,161.87c0.042,1.417 0.042,2.834 0.042,4.255l-0,98.958Z" style="fill:#bdccc4;fill-rule:nonzero;"/><path d="M4913.54,4048.95l-0,98.958c-0,59.375 -31.167,111.458 -78,140.792l-0,123.412c-0,70.213 -56.917,127.129 -127.125,127.129c-33.834,0 -64.584,-13.208 -87.375,-34.754c27.833,-64.496 49.583,-132.167 64.583,-202.371c10.042,-47.041 17.083,-95.212 20.917,-144.25c1.791,-23.379 2.875,-46.962 3.166,-70.708c0.084,-4.921 0.125,-9.833 0.125,-14.796c0,-31.912 -1.375,-63.496 -4.083,-94.746c45.667,-14.504 85.75,-41.625 116.083,-77.25c53.167,26.709 90.042,81.125 91.667,144.329c0.042,1.417 0.042,2.834 0.042,4.255" style="fill:#a5b3aa;fill-rule:nonzero;"/><rect x="4705.45" y="4477.59" width="31.204" height="185.383" style="fill:#ead04e;"/><path d="M4709.84,4072.37c-0,4.958 -0.042,9.875 -0.125,14.795c-0.292,23.746 -1.375,47.33 -3.167,70.709c-3.833,49.037 -10.875,97.208 -20.916,144.25c-15,70.204 -36.75,137.871 -64.584,202.371c-39.041,90.67 -90,175 -150.958,251c-12.75,229.708 -116.25,435.17 -275.25,581.208c-1.542,1.458 -3.125,2.921 -4.75,4.375c-118.958,107.625 -268.333,182.25 -433.667,209.417c-45.416,7.458 -92.041,11.337 -139.541,11.337c-0.792,0 -1.625,0 -2.417,-0.046c1.75,-640.541 5.083,-1842.16 7.042,-2410.29c-0,-0.042 0.041,-0.042 0.041,-0.08c35.792,62.334 86.542,122.417 156.709,158.875l552.291,287.413c22.667,11.792 46.042,20.921 69.709,27.462c-16.917,34.75 -26.042,73.871 -25.292,115.246c2.208,125.292 97,229.5 218.25,246.667c10.292,1.462 20.708,2.292 31.333,2.458c28.334,0.459 55.667,-3.746 81.209,-11.912c2.708,31.25 4.083,62.833 4.083,94.746" style="fill:#bac6be;fill-rule:nonzero;"/><path d="M4705.75,3977.62c-25.542,8.167 -52.875,12.375 -81.209,11.912c-10.625,-0.166 -21.041,-0.995 -31.333,-2.454c-121.25,-17.171 -216.042,-121.375 -218.25,-246.671c-0.75,-41.37 8.375,-80.495 25.292,-115.245c-23.667,-6.542 -47.042,-15.671 -69.709,-27.463l-552.291,-287.412c-70.167,-36.459 -120.917,-96.542 -156.709,-158.875c0,0.041 -0.041,0.041 -0.041,0.079c-1.959,568.129 -5.292,1769.75 -7.042,2410.29c-0.375,0.046 -0.75,0 -1.125,0c-38.75,-0.12 -76.833,-2.87 -114.167,-8c-174.041,-23.995 -331.375,-100.375 -455.541,-212.708c-1.584,-1.454 -3.209,-2.917 -4.75,-4.371c-95.375,-87.629 -170.792,-196.629 -218.584,-319.416c-11.458,-29.296 -21.291,-59.375 -29.416,-90.088c-2.875,-10.75 -5.542,-21.542 -7.917,-32.458c-6.625,-29.5 -11.708,-59.496 -15.167,-90.084c-1,-8.745 -1.875,-17.579 -2.583,-26.416c-0.625,-7.579 -1.167,-15.121 -1.583,-22.75c-15.334,-19.121 -30.042,-38.788 -44.084,-58.954c-3.25,-4.625 -6.416,-9.255 -9.541,-13.963c-4.167,-6.121 -8.25,-12.333 -12.292,-18.583c-20.25,-31.329 -38.875,-63.788 -55.833,-97.209c-9.334,-18.329 -18.125,-36.958 -26.459,-55.875c-5.25,-11.912 -10.25,-23.958 -15.041,-36.125c-7.375,-18.62 -14.25,-37.5 -20.625,-56.625c-6.917,-20.625 -13.209,-41.625 -18.834,-62.833c-2.25,-8.287 -4.375,-16.621 -6.416,-25c-2.834,-11.746 -5.5,-23.625 -7.917,-35.496c-5.208,-25.166 -9.583,-50.666 -13,-76.416c-5.75,-43.042 -9,-86.838 -9.583,-131.296c-0.084,-4.913 -0.084,-9.788 -0.084,-14.75c0,-40.834 2.209,-81.121 6.584,-120.788c4.583,-41.712 11.5,-82.712 20.666,-122.875c26.625,-116.796 71.875,-226.458 132.584,-325.708c10.5,-17.167 21.458,-34 32.833,-50.5c15.792,-22.958 32.5,-45.254 49.958,-66.833c31.542,-39.005 65.75,-75.838 102.292,-110.171c78.792,-74 168.583,-136.413 266.625,-184.584c6.708,-3.291 13.5,-6.537 20.292,-9.708c139.125,-64.871 294.125,-101.246 457.583,-101.75c1.167,-0.037 2.375,-0.037 3.542,-0.037c221,-0 426.708,65.625 598.708,178.458c25.125,16.458 49.583,34 73.25,52.496c31.042,24.212 60.708,50.046 88.917,77.416c15.5,15.046 30.583,30.546 45.166,46.505c34.042,37.125 65.542,76.579 94.209,118.208c4.541,6.542 9.041,13.208 13.416,19.917c81.792,124.245 138.875,266.208 164.334,418.87c4.75,28.421 8.416,57.255 10.875,86.338" style="fill:#d6e6dd;fill-rule:nonzero;"/><path d="M3795.41,4650.73l-178.55,78.666l-178.55,-78.666l357.1,-0Z" style="fill:#a9b5ae;fill-rule:nonzero;"/><path d="M3872.16,5087.14l-39.584,40.542c-136.379,139.675 -295.054,139.675 -431.433,-0l-39.583,-40.542l39.583,-40.546c136.379,-139.67 295.054,-139.67 431.433,0l39.584,40.546Z" style="fill:#cb6750;fill-rule:nonzero;"/><path d="M3872.16,5089.08l-39.584,40.546c-136.379,139.671 -295.054,139.671 -431.433,0l-39.583,-40.546l510.6,0Z" style="fill:#b2492d;fill-rule:nonzero;"/><path d="M3921.22,4827.22c-0,20.158 -16.342,36.504 -36.504,36.504c-20.159,0 -36.504,-16.346 -36.504,-36.504c-0,-20.163 16.345,-36.508 36.504,-36.508c20.162,-0 36.504,16.345 36.504,36.508" style="fill:#5b5e5d;fill-rule:nonzero;"/><path d="M3453.21,4072.39l-41.53,42.542c-143.091,146.541 -309.566,146.541 -452.658,-0l-41.529,-42.542l41.529,-42.538c143.092,-146.541 309.567,-146.541 452.658,0l41.53,42.538Z" style="fill:#f4f5f6;fill-rule:nonzero;"/><path d="M3291.85,4072.39c-0,58.817 -47.68,106.5 -106.496,106.5c-58.817,-0 -106.496,-47.683 -106.496,-106.5c-0,-58.813 47.679,-106.496 106.496,-106.496c58.816,0 106.496,47.683 106.496,106.496" style="fill:#89b59c;fill-rule:nonzero;"/><path d="M3232.53,4072.39c-0,26.054 -21.121,47.175 -47.175,47.175c-26.055,-0 -47.175,-21.121 -47.175,-47.175c-0,-26.054 21.12,-47.175 47.175,-47.175c26.054,-0 47.175,21.121 47.175,47.175" style="fill:#5b5e5d;fill-rule:nonzero;"/><path d="M3453.21,4072.39l-41.529,42.542c-3.584,3.679 -7.167,7.229 -10.78,10.712c-137,-132.275 -294.095,-132.275 -431.095,0c-3.617,-3.483 -7.2,-7.033 -10.784,-10.712l-41.529,-42.542l41.529,-42.538c143.092,-146.541 309.567,-146.541 452.659,0l41.529,42.538Z" style="fill:#bdccc4;fill-rule:nonzero;"/><path d="M4316.23,4072.39l-41.529,42.542c-143.092,146.541 -309.567,146.541 -452.658,-0l-41.529,-42.542l41.529,-42.538c143.091,-146.541 309.566,-146.541 452.658,0l41.529,42.538Z" style="fill:#f4f5f6;fill-rule:nonzero;"/><path d="M4154.86,4072.39c-0,58.817 -47.68,106.5 -106.496,106.5c-58.817,-0 -106.496,-47.683 -106.496,-106.5c-0,-58.813 47.679,-106.496 106.496,-106.496c58.816,0 106.496,47.683 106.496,106.496" style="fill:#89b59c;fill-rule:nonzero;"/><path d="M4095.54,4072.39c0,26.054 -21.12,47.175 -47.175,47.175c-26.054,-0 -47.175,-21.121 -47.175,-47.175c0,-26.054 21.121,-47.175 47.175,-47.175c26.055,-0 47.175,21.121 47.175,47.175" style="fill:#5b5e5d;fill-rule:nonzero;"/><path d="M4316.23,4072.39l-41.529,42.542c-3.583,3.679 -7.167,7.229 -10.783,10.712c-136.996,-132.275 -294.092,-132.275 -431.092,0c-3.617,-3.483 -7.2,-7.033 -10.783,-10.712l-41.529,-42.542l41.529,-42.538c143.091,-146.541 309.566,-146.541 452.658,0l41.529,42.538Z" style="fill:#a5b3aa;fill-rule:nonzero;"/><path d="M3361.03,3829.18c-36.184,-62.55 -103.479,-101.404 -175.634,-101.404c-72.154,0 -139.45,38.854 -175.633,101.404l-112.779,-65.241c59.396,-102.671 169.908,-166.446 288.412,-166.446c118.505,-0 229.017,63.775 288.413,166.446l-112.779,65.241Z" style="fill:#5b5e5d;fill-rule:nonzero;"/><path d="M4224,3829.21c-36.188,-62.546 -103.488,-101.4 -175.638,-101.4c-72.15,-0 -139.45,38.854 -175.629,101.4l-112.775,-65.238c59.388,-102.675 169.9,-166.45 288.404,-166.45c118.505,0 229.017,63.775 288.413,166.446l-112.775,65.242Z" style="fill:#545855;fill-rule:nonzero;"/><path d="M3622.96,2838.16c-0.25,-0 -0.791,120.083 -1.458,313.333c-3,6.125 -4.792,12.125 -8.167,18.083c-32.75,58.084 -82.125,107.671 -145.666,140.713l-81.375,42.333l-470.959,245.079c-34.458,17.921 -70.583,29.709 -107,35.629c15.25,34.375 23.042,72.792 21.375,113.163c-1.375,33.5 -9.333,65.25 -22.625,94.25c-36.833,80.462 -114.75,138.629 -206.041,147.583c-6.917,0.709 -13.875,1.088 -20.959,1.209c-46,0.708 -89.208,-10.871 -126.666,-31.538c-47.584,-26.375 -85.75,-67.5 -108.375,-117.254c-14.584,-31.958 -22.667,-67.5 -22.667,-104.917c0,-80.333 37.333,-151.954 95.583,-198.454c7.834,-6.292 14,-13.917 18.334,-22.379c10.75,-20.704 10.875,-46.204 -0.5,-68.079c-0.125,-0.209 -0.209,-0.421 -0.334,-0.588c-14.75,-28.291 -25.333,-57.708 -31.875,-87.454c-27.708,-124.879 14.375,-256.171 109.709,-341.629c21.791,-19.542 46.375,-36.75 73.541,-50.871l22.584,-11.754l234.291,-121.917l295.459,-153.704c170.791,-88.921 380.416,-25.667 474.166,140.871c1.959,3.458 3.875,7 5.709,10.546c1.333,2.583 2.666,5.166 3.916,7.746" style="fill:#50aa77;fill-rule:nonzero;"/><path d="M4882.42,3735.83c-0,62.792 -22.792,120.25 -60.584,164.542c-30.333,35.625 -70.416,62.75 -116.083,77.25c-25.542,8.166 -52.875,12.375 -81.208,11.916c-10.625,-0.166 -21.042,-1 -31.334,-2.458c-121.25,-17.167 -216.041,-121.375 -218.25,-246.667c-0.75,-41.375 8.375,-80.5 25.292,-115.25c-23.667,-6.541 -47.042,-15.666 -69.708,-27.458l-552.292,-287.417c-70.167,-36.458 -120.917,-96.541 -156.708,-158.875c-0,0.042 -0.042,0.042 -0.042,0.084c0.667,-193.25 1.208,-313.334 1.458,-313.334c1.25,-2.583 2.584,-5.166 3.875,-7.75c90.709,-174.375 305.542,-242.166 479.917,-151.416l552.333,287.375c174.292,90.708 242.125,305.583 151.375,479.958c-3.875,7.333 -7.916,14.542 -12.208,21.542c-17.542,28.75 -12.917,65.5 10.75,89.375c45.375,45.875 73.417,108.916 73.417,178.583" style="fill:#4c996b;fill-rule:nonzero;"/><path d="M2705.93,4694.18l-0,90.091c-8.959,0 -16.221,7.263 -16.221,16.225c-0,1.4 0.162,2.734 0.521,4.034c-4.917,0.358 -9.905,0.558 -14.917,0.558c-26.579,-0 -51.954,-5.113 -75.208,-14.367c4.95,-54.071 50.516,-96.541 105.825,-96.541" style="fill:#b2492d;fill-rule:nonzero;"/><path d="M3400.51,3456.33c-0,211.979 -172.425,384.404 -384.367,384.404l-756.896,-0c-32.354,-0 -58.67,26.317 -58.67,58.671c-0,32.312 26.316,58.625 58.67,58.625l0,-0.075l192.063,-0c0.683,-0 1.408,-0 2.091,0.037c52.309,0.242 102.209,11.025 147.638,30.342c100.475,42.65 179.225,126.875 214.475,230.929c-39.958,-27.117 -88.246,-43.017 -140.196,-43.017c-86.15,0 -162.121,43.58 -207.071,109.938c-5.308,-1.613 -11.025,-2.496 -16.937,-2.496l-192.063,0l0,0.079c-211.941,0 -384.404,-172.466 -384.404,-384.362c0,-211.938 172.463,-384.404 384.404,-384.404l756.896,-0c32.313,-0 58.629,-26.317 58.629,-58.671c0,-32.313 -26.316,-58.625 -58.629,-58.625l-444.358,-0c-60.279,-0 -117.379,-13.967 -168.2,-38.834c-127.879,-62.45 -216.204,-193.912 -216.204,-345.575c-0,-211.816 172.262,-384.204 384.041,-384.362l444.363,-0l-0,1.087c-66.717,58.625 -124.825,126.95 -172.063,202.684l-234.316,121.925l-37.984,-0c-32.191,0.2 -58.308,26.475 -58.308,58.666c0,1.33 0.042,2.659 0.162,3.942c2.013,30.5 27.484,54.729 58.509,54.729l444.358,0c176.009,0 324.771,118.946 370.163,280.667c9.254,32.996 14.204,67.804 14.204,103.696" style="fill:#3e9261;fill-rule:nonzero;"/><path d="M2835.71,4342.35l-325.721,0c-0,-26.45 -17.625,-48.891 -41.725,-56.158c44.95,-66.346 120.908,-109.925 207.062,-109.925c51.95,0 100.225,15.858 140.188,42.992c13.095,38.662 20.195,80.062 20.195,123.091" style="fill:#3e9261;fill-rule:nonzero;"/><path d="M2982.8,4922.99c0,58.629 -47.687,106.321 -106.317,106.321l-326.733,0c-8.954,0 -16.221,7.263 -16.221,16.217c0,8.925 7.267,16.225 16.221,16.225l0,-0.034l170.55,0c58.596,0 106.283,47.684 106.283,106.284l-0.033,-0l0,42.958l-45.046,-42.958l-45.016,42.958l-0,-42.958l0.033,-0c-0,-8.925 -7.296,-16.225 -16.221,-16.225l-170.55,-0l0,0.033c-58.629,0 -106.317,-47.683 -106.317,-106.283c0,-58.629 47.688,-106.313 106.317,-106.313l326.733,0c8.959,0 16.221,-7.266 16.221,-16.225c0,-8.925 -7.262,-16.221 -16.221,-16.221l-170.55,0c-58.595,0 -106.283,-47.683 -106.283,-106.279c0,-3.291 0.167,-6.55 0.458,-9.775c23.259,9.254 48.63,14.367 75.209,14.367c5.016,-0 10,-0.2 14.921,-0.558c1.791,7.008 8.141,12.183 15.695,12.183l170.55,-0c58.63,-0 106.317,47.687 106.317,106.283" style="fill:#cb6750;fill-rule:nonzero;"/><path d="M2876.79,4574.16c1.25,9 1.875,18.208 1.875,27.625c0,107.25 -83.083,195.125 -188.416,202.75c-4.917,0.333 -9.917,0.542 -14.917,0.542c-26.583,-0 -51.958,-5.129 -75.25,-14.375c-75.042,-29.875 -128.083,-103.254 -128.083,-188.917c-0,-9.375 0.625,-18.583 1.833,-27.625l0,-0.042c-30.458,-41.416 -48.458,-92.545 -48.458,-147.916c-0,-51.875 15.833,-100.084 42.875,-140c44.958,-66.375 120.916,-109.959 207.083,-109.959c51.958,0 100.208,15.875 140.167,42.996c66.25,44.959 109.791,120.879 109.791,206.963c0,55.371 -18,106.541 -48.5,147.958" style="fill:#50aa77;fill-rule:nonzero;"/><path d="M2604.74,4601.76l-29.716,-29.013c-102.371,-99.958 -102.371,-216.254 -0,-316.212l29.716,-29.013l29.717,29.013c102.371,99.958 102.371,216.254 0,316.212l-29.717,29.013Z" style="fill:#f4f5f6;fill-rule:nonzero;"/><path d="M2604.74,4489.03c-41.087,0 -74.395,-33.308 -74.395,-74.391c-0,-41.092 33.308,-74.4 74.395,-74.4c41.088,-0 74.396,33.308 74.396,74.4c0,41.083 -33.308,74.391 -74.396,74.391" style="fill:#89b59c;fill-rule:nonzero;"/><path d="M2604.74,4447.59c-18.2,0 -32.954,-14.754 -32.954,-32.954c0,-18.204 14.754,-32.958 32.954,-32.958c18.2,-0 32.955,14.754 32.955,32.958c-0,18.2 -14.755,32.954 -32.955,32.954" style="fill:#5b5e5d;fill-rule:nonzero;"/><path d="M2604.74,4601.76l-29.716,-29.013c-2.571,-2.5 -5.05,-5.004 -7.488,-7.533c92.409,-95.7 92.409,-205.446 0,-301.15c2.438,-2.525 4.917,-5.029 7.488,-7.529l29.716,-29.013l29.717,29.013c102.371,99.958 102.371,216.254 0,316.212l-29.717,29.013Z" style="fill:#3e9261;fill-rule:nonzero;"/></g></svg>