<?xml version="1.0" encoding="UTF-8" standalone="no"?><!DOCTYPE svg PUBLIC "-//W3C//DTD SVG 1.1//EN" "http://www.w3.org/Graphics/SVG/1.1/DTD/svg11.dtd"><svg width="100%" height="100%" viewBox="0 0 7220 7220" version="1.1" xmlns="http://www.w3.org/2000/svg" xmlnsXlink="http://www.w3.org/1999/xlink" xmlSpace="preserve" xmlnsSerif="http://www.serif.com/" style="fill-rule:evenodd;clip-rule:evenodd;stroke-linejoin:round;stroke-miterlimit:2;"><rect id="MM3" x="0.539" y="0.197" width="7219.25" height="7219.25" style="fill:none;"/><g id="BG"><path d="M5476.77,3829.66c0,1030.33 -835.246,1865.57 -1865.58,1865.57c-1030.33,0 -1865.57,-835.241 -1865.57,-1865.57c0,-1030.33 835.246,-1865.57 1865.57,-1865.57c1030.33,-0 1865.58,835.245 1865.58,1865.57" style="fill:#d3bc47;fill-rule:nonzero;"/><path d="M4679.35,4637.99l-145.104,131.47c-73.192,66.313 -125.321,152.646 -149.938,248.296l-223.137,560.929l-1099.92,0l-214.942,-556.216c-24.575,-98.6 -78.333,-187.488 -154.241,-255.042l-142.817,-127.087c-125.575,-111.746 -187.288,-278.663 -164.608,-445.221l145.795,-1070.71l2175.4,0l135.425,1076.47c20.559,163.388 -39.875,326.534 -161.912,437.105" style="fill:#7b7159;fill-rule:nonzero;"/><path d="M5628.69,4039.48c-35.883,9.583 -72.37,16.404 -109.112,20.433c-1.746,0.188 -3.458,0.379 -5.204,0.538c8.183,-61.838 11.833,-117.33 10.787,-163.525c-0.446,-18.563 -1.616,-35.634 -3.521,-51.021c-37.125,47.816 -77.416,123.708 -115.429,217.721c-28.933,-1.271 -57.775,-4.255 -86.425,-8.95c6.188,-34.455 10.342,-66.28 12.438,-94.738c1.329,-18.529 1.775,-35.633 1.329,-51.146c-28.775,30.588 -60.346,74.434 -92.613,128.467c-117.329,-32.775 -228.091,-95.313 -320.391,-187.608c-163.684,-163.688 -233.771,-385.496 -210.263,-598.992c4.034,-36.746 10.854,-73.233 20.434,-109.15c244.562,-65.325 516.283,-2.029 708.141,189.833c191.859,191.825 255.159,463.579 189.829,708.138" style="fill:#6b614d;fill-rule:nonzero;"/><path d="M5247.9,3309.88c-129.108,-129.109 -311.975,-171.692 -476.537,-127.734c-6.442,24.163 -11.038,48.717 -13.759,73.438c-15.812,143.671 31.342,292.941 141.492,403.096c110.154,110.154 259.454,157.333 403.112,141.483c24.734,-2.708 49.275,-7.296 73.425,-13.75c43.959,-164.563 1.375,-347.429 -127.733,-476.533" style="fill:#605641;fill-rule:nonzero;"/><g opacity="0.15"><path d="M5438.86,3331.34c-191.858,-191.862 -463.579,-255.158 -708.142,-189.833c-5.862,21.992 -10.566,44.213 -14.358,66.554l-10.521,-83.641l-1091.48,-0l-0,2454.27l546.812,0l223.138,-560.929c24.612,-95.65 76.746,-181.983 149.942,-248.3l145.1,-131.462c122.037,-110.571 182.47,-273.721 161.912,-437.109l-71.762,-570.445c35.5,79.491 85.816,153.97 151.045,219.204c92.296,92.296 203.063,154.833 320.392,187.608c32.271,-54.033 63.838,-97.879 92.617,-128.467c0.441,15.517 -0,32.617 -1.334,51.146c-2.095,28.459 -6.254,60.284 -12.441,94.742c28.654,4.696 57.496,7.675 86.429,8.946c38.012,-94.009 78.308,-169.904 115.429,-217.721c1.904,15.387 3.075,32.458 3.521,51.021c1.046,46.196 -2.604,101.691 -10.788,163.525c1.746,-0.159 3.459,-0.35 5.205,-0.542c36.741,-4.025 73.229,-10.846 109.112,-20.429c65.329,-244.558 2.029,-516.313 -189.829,-708.138" style="fill:#030404;fill-rule:nonzero;"/></g><path d="M1797.41,3331.32c191.858,-191.858 463.604,-255.137 708.146,-189.816c9.57,35.908 16.4,72.395 20.45,109.133c23.491,213.5 -46.575,435.321 -210.267,599.012c-163.688,163.692 -385.55,233.8 -599.029,210.246c-36.754,-4.029 -73.229,-10.837 -109.117,-20.429c-65.321,-244.542 -2.042,-516.287 189.817,-708.146" style="fill:#6b614d;fill-rule:nonzero;"/><path d="M1988.38,3309.88c129.108,-129.109 311.975,-171.692 476.537,-127.734c6.442,24.163 11.038,48.717 13.758,73.438c15.813,143.671 -31.341,292.941 -141.495,403.096c-110.15,110.154 -259.45,157.333 -403.109,141.483c-24.733,-2.708 -49.275,-7.296 -73.425,-13.75c-43.958,-164.563 -1.375,-347.429 127.734,-476.533" style="fill:#605641;fill-rule:nonzero;"/><path d="M4133.68,5182.03l-1051.3,0l145.025,-595.325c28.504,-161.725 98.733,-313.204 203.737,-439.466l182.959,-219.992l179.391,215.671c107.292,128.992 178.242,284.267 205.538,449.812l134.65,589.3Z" style="fill:#8c8368;fill-rule:nonzero;"/><path d="M4139.99,5244.13l-1057.6,-0l0,329.987c0,210.179 170.38,380.559 380.555,380.559l296.487,-0c210.175,-0 380.554,-170.38 380.554,-380.559l0,-329.987Z" style="fill:#272217;fill-rule:nonzero;"/><path d="M3776.74,4864.11l-331.079,0c-234.704,0 -424.967,190.263 -424.967,424.963l0,239.583c0,71.196 57.717,128.917 128.913,128.917l923.183,-0c71.196,-0 128.913,-57.721 128.913,-128.917l-0,-239.583c-0,-234.7 -190.263,-424.963 -424.963,-424.963" style="fill:#342f1f;fill-rule:nonzero;"/><path d="M3462.59,5215.08c0,6.246 -0.604,12.396 -1.812,18.287c-7.559,37.434 -37.684,66.7 -75.571,72.905c-4.938,0.854 -9.975,1.254 -15.117,1.254c-32.846,-0 -61.666,-17.129 -78.041,-42.971c-9.167,-14.313 -14.409,-31.288 -14.409,-49.475c0,-51.088 41.417,-92.5 92.45,-92.5c19.4,-0 37.384,5.996 52.246,16.221c24.333,16.629 40.254,44.591 40.254,76.279" style="fill:#272217;fill-rule:nonzero;"/><path d="M3944.74,5215.08c-0,18.187 -5.242,35.162 -14.359,49.475c-16.425,25.842 -45.241,42.971 -78.091,42.971c-5.138,-0 -10.175,-0.4 -15.113,-1.254c-37.837,-6.205 -67.962,-35.421 -75.521,-72.855c-1.162,-5.895 -1.816,-12.037 -1.816,-18.337c-0,-31.688 15.921,-59.65 40.204,-76.279c14.862,-10.225 32.85,-16.221 52.246,-16.221c51.087,-0 92.45,41.412 92.45,92.5" style="fill:#272217;fill-rule:nonzero;"/><path d="M5233.03,3214.65l-1306.03,-0l-0,-646.946l1306.03,-0c64.937,-0.4 117.487,-54.258 115.775,-119.65c-1.663,-63.483 -55.117,-113.408 -118.65,-113.408l-147.213,-0l0,0.05c-314.979,-5.896 -606.837,-207.975 -711.279,-523.559l-118.746,-359.971l6.95,-6.954l171.296,93.809l-71.387,-193.713l29.521,-29.475l182.379,2.871l-88.063,-97.183l52.292,-52.296l443.05,420.733c33.408,31.688 72.25,56.375 114.217,73.154c42.02,16.775 87.158,25.592 133.204,25.592c413.683,-0 763.225,338.308 769.366,751.933c6.3,426.021 -338.204,774.659 -762.712,775.013" style="fill:#c6ba9e;fill-rule:nonzero;"/><path d="M3293.26,2567.71l-0,646.945l-1306.03,0c-424.513,-0.354 -769.017,-348.991 -762.667,-775.012c1.862,-129.175 37.283,-250.946 97.637,-357.404l126.355,69.225l-61.213,-166.154c21.263,-27.059 44.338,-52.7 69.021,-76.73c139.858,-136.283 330.65,-220.87 537.517,-220.87c92.095,-0 180.666,-35.367 247.42,-98.746l991.096,-941.121l-383.754,1163.3c-104.492,315.583 -396.296,517.662 -711.329,523.554l-0,-0.05l-147.213,0c-63.479,0 -116.983,49.929 -118.645,113.408c-1.717,65.396 50.833,119.25 115.775,119.655l1306.03,-0Z" style="fill:#c6ba9e;fill-rule:nonzero;"/><rect x="2637.73" y="2544.34" width="1946.94" height="670.329" style="fill:#8c8368;"/><path d="M4584.66,2544.34l-1946.94,0l346.892,-81.208l1283.22,-0l316.829,81.208Z" style="fill:#8c8368;fill-rule:nonzero;"/><rect x="2637.73" y="2563.44" width="1946.94" height="670.329" style="fill:#8c8368;"/><path d="M2637.73,3233.77l1946.94,-0l-346.887,81.208l-1283.22,0l-316.829,-81.208Z" style="fill:#8c8368;fill-rule:nonzero;"/><path d="M4003.17,3314.98l-70.834,0c-0.316,43.655 1.471,90.867 5.621,140.034c12.167,144.146 41.525,268.421 75.059,333.4c3.254,-10.225 6.204,-21.696 8.829,-34.296c9.491,-45.433 14.766,-105.417 14.921,-173.804c-12.896,-56.892 -23.155,-123.454 -29.188,-194.921c-2.029,-24 -3.479,-47.525 -4.408,-70.413" style="fill:#a5917d;fill-rule:nonzero;"/><path d="M3950.09,3252.37c-9.3,-41.045 -19.958,-77.12 -31.412,-106.287c-4.704,-11.971 -9.538,-22.788 -14.458,-32.333c-14.605,45.912 -23.105,116.908 -23.725,201.229l70.829,-0c-0.875,-21.5 -1.279,-42.417 -1.234,-62.609" style="fill:#b7a28d;fill-rule:nonzero;"/><path d="M4042.39,3314.98c-11.967,-96.883 -31.504,-181.008 -54.084,-238.516c-4.704,-11.971 -9.541,-22.788 -14.458,-32.334c-15.008,47.175 -23.562,120.85 -23.75,208.242c4.483,19.783 8.658,40.683 12.438,62.608l79.854,0Z" style="fill:#b7a28d;fill-rule:nonzero;"/><path d="M4094.23,3314.98l-79.854,0c7.083,41.096 12.817,85.588 16.746,132.171c3.937,46.596 5.737,91.438 5.646,133.163c13.116,57.858 28.958,105.716 45.866,138.479c3.259,-10.225 6.205,-21.696 8.834,-34.296c15.279,-73.15 19.658,-183.983 9.279,-306.967c-1.804,-21.341 -4.004,-42.208 -6.517,-62.55" style="fill:#a5917d;fill-rule:nonzero;"/><path d="M4031.12,3447.15c-3.929,-46.583 -9.663,-91.071 -16.746,-132.171l-11.204,0c0.929,22.888 2.379,46.413 4.404,70.417c6.033,71.462 16.296,138.029 29.192,194.916c0.091,-41.725 -1.709,-86.562 -5.646,-133.162" style="fill:#a5917d;fill-rule:nonzero;"/><path d="M3951.33,3314.98l11.205,0c-3.78,-21.925 -7.955,-42.825 -12.438,-62.608c-0.046,20.188 0.358,41.108 1.233,62.608" style="fill:#b7a28d;fill-rule:nonzero;"/><path d="M4579.79,2749.37c-15.329,6.02 -29.175,12.212 -41.404,18.512c23.325,7.421 51.771,13.583 84.267,18.4l-0,-52.046c-15.305,4.9 -29.663,9.95 -42.863,15.134" style="fill:#c6ba9e;fill-rule:nonzero;"/><path d="M4490.64,2660.22c-15.329,6.016 -29.175,12.212 -41.404,18.512c42.742,13.596 102.513,23.029 173.421,27.488l0,-85.305c-50.896,11.684 -95.629,25.013 -132.017,39.305" style="fill:#c6ba9e;fill-rule:nonzero;"/><path d="M2513.74,3084.32l-0,79.854c96.879,-11.966 181.012,-31.504 238.517,-54.083c11.97,-4.7 22.783,-9.538 32.329,-14.458c-47.171,-15.013 -120.846,-23.563 -208.238,-23.75c-19.787,4.483 -40.683,8.658 -62.608,12.437" style="fill:#c6ba9e;fill-rule:nonzero;"/><path d="M2807.55,3980.61c74.133,-195.287 164.237,-356.162 236.592,-433.054c0.45,15.509 -0.009,32.609 -1.355,51.129c-7.854,107.655 -45.766,263.221 -109.016,429.838c-63.246,166.617 -138.129,308.2 -203.684,393.904c-11.287,14.771 -22.287,27.867 -32.904,39.15c-3.104,-105.533 36.234,-285.679 110.367,-480.967" style="fill:#a5917d;fill-rule:nonzero;"/><path d="M3206.93,4192.2l-77.046,7.967c-265.446,27.437 -432.138,-111.355 -453.238,-377.38l-6.116,-77.216l77.045,-7.971c265.446,-27.433 432.138,111.354 453.238,377.383l6.117,77.217Z" style="fill:#f4f5f6;fill-rule:nonzero;"/><path d="M3045.36,4057.67c-49.037,58.892 -136.529,66.884 -195.416,17.846c-58.896,-49.033 -66.884,-136.525 -17.85,-195.417c49.037,-58.891 136.529,-66.883 195.42,-17.845c58.892,49.033 66.884,136.525 17.846,195.416" style="fill:#d3bc47;fill-rule:nonzero;"/><path d="M2985.96,4008.21c-21.721,26.088 -60.479,29.625 -86.567,7.904c-26.087,-21.72 -29.625,-60.479 -7.904,-86.566c21.721,-26.088 60.479,-29.625 86.567,-7.904c26.087,21.72 29.625,60.475 7.904,86.566" style="fill:#5b5e5d;fill-rule:nonzero;"/><path d="M3243.14,4235.78l-89.346,9.242c-7.721,0.808 -15.313,1.466 -22.879,2.021c-31.192,-286.042 -213.6,-437.921 -500.559,-416.784c-0.829,-7.541 -1.558,-15.129 -2.158,-22.866l-7.096,-89.546l89.35,-9.242c307.825,-31.817 501.125,129.133 525.592,437.629l7.096,89.546Z" style="fill:#605641;fill-rule:nonzero;"/><path d="M4024.38,4192.2l77.05,7.967c265.446,27.437 432.134,-111.355 453.238,-377.38l6.116,-77.216l-77.05,-7.971c-265.445,-27.433 -432.137,111.354 -453.237,377.383l-6.117,77.217Z" style="fill:#f4f5f6;fill-rule:nonzero;"/><path d="M4185.95,4057.67c49.037,58.892 136.529,66.884 195.42,17.846c58.892,-49.033 66.88,-136.525 17.846,-195.417c-49.033,-58.891 -136.529,-66.883 -195.421,-17.845c-58.891,49.033 -66.883,136.525 -17.845,195.416" style="fill:#d3bc47;fill-rule:nonzero;"/><path d="M4245.35,4008.21c21.721,26.088 60.479,29.625 86.567,7.904c26.087,-21.72 29.625,-60.479 7.904,-86.566c-21.721,-26.088 -60.479,-29.625 -86.567,-7.904c-26.087,21.72 -29.625,60.475 -7.904,86.566" style="fill:#5b5e5d;fill-rule:nonzero;"/><path d="M3988.16,4235.78l89.35,9.242c7.717,0.808 15.308,1.466 22.879,2.021c31.188,-286.042 213.596,-437.921 500.554,-416.784c0.834,-7.541 1.559,-15.129 2.159,-22.866l7.096,-89.546l-89.35,-9.242c-307.821,-31.817 -501.125,129.133 -525.592,437.629l-7.096,89.546Z" style="fill:#605641;fill-rule:nonzero;"/><path d="M3485.06,5710.77l-23.075,95.175l-201.52,-0l-0,-100.767l59.904,0c-54.867,-66.3 -86.154,-150.587 -86.154,-240.212c-0,-73.609 21.208,-142.325 57.837,-200.417c32.546,-51.692 77.333,-95.017 130.288,-125.75c24.333,16.625 40.25,44.588 40.25,76.275c-0,6.246 -0.605,12.396 -1.813,18.288c-29.571,19.295 -55.267,44.083 -75.571,72.904c-31.637,44.937 -50.229,99.65 -50.229,158.7c0,103.983 57.483,198.196 150.083,245.804" style="fill:#ead04e;fill-rule:nonzero;"/><path d="M3902.01,5705.18l58.492,0l-0,100.767l-200.113,-0l-23.025,-95.175c92.55,-47.609 150.038,-141.821 150.038,-245.804c-0,-59.05 -18.596,-113.763 -50.233,-158.7c-20.305,-28.821 -45.946,-53.609 -75.521,-72.855c-1.159,-5.895 -1.817,-12.037 -1.817,-18.337c0,-31.688 15.925,-59.65 40.204,-76.279c52.954,30.733 97.742,74.012 130.338,125.754c36.579,58.087 57.787,126.808 57.787,200.417c0,89.62 -31.287,173.912 -86.15,240.212" style="fill:#ead04e;fill-rule:nonzero;"/><path d="M3469.69,6447.69c-19.221,53.929 -78.496,82.083 -132.429,62.862c-5.638,-2.012 -10.984,-4.433 -16.034,-7.283c-28.925,55.575 -95.154,82.742 -155.858,61.142c-61.033,-21.75 -95.229,-85.163 -81.975,-146.817c-7.283,-0.913 -14.571,-2.633 -21.783,-5.2c-53.934,-19.221 -82.088,-78.496 -62.863,-132.425c19.183,-53.896 78.492,-82.046 132.388,-62.863c10.4,3.696 19.804,8.896 28.12,15.23l32.805,-92.08l220.695,78.609l-32.291,90.721c8.787,0.733 17.646,2.6 26.362,5.716c53.892,19.184 82.046,78.459 62.863,132.388" style="fill:#e2e0d7;fill-rule:nonzero;"/></g></svg>