<?xml version="1.0" encoding="UTF-8" standalone="no"?><!DOCTYPE svg PUBLIC "-//W3C//DTD SVG 1.1//EN" "http://www.w3.org/Graphics/SVG/1.1/DTD/svg11.dtd"><svg width="100%" height="100%" viewBox="0 0 7220 7220" version="1.1" xmlns="http://www.w3.org/2000/svg" xmlnsXlink="http://www.w3.org/1999/xlink" xmlSpace="preserve" xmlnsSerif="http://www.serif.com/" style="fill-rule:evenodd;clip-rule:evenodd;stroke-linejoin:round;stroke-miterlimit:2;"><rect id="MM5" x="0.202" y="0.281" width="7219.25" height="7219.25" style="fill:none;"/><g id="BG"><path d="M5440.38,3265.12c0,1022.66 -829.033,1851.69 -1851.69,1851.69c-1022.66,-0 -1851.69,-829.03 -1851.69,-1851.69c0,-1022.66 829.029,-1851.69 1851.69,-1851.69c1022.66,0 1851.69,829.03 1851.69,1851.69" style="fill:#2fbebe;fill-rule:nonzero;"/><path d="M3100.07,4840.46l-569.884,-489.975l377.03,982.571c27.633,72.016 74.508,135.062 135.508,182.271l283.158,219.116c151.788,117.454 363.771,117.488 515.592,0.079l283.433,-219.183c61.05,-47.212 107.963,-110.296 135.617,-182.354l377,-982.5l-569.879,489.975c-278.184,239.179 -689.392,239.179 -967.575,-0" style="fill:#377277;fill-rule:nonzero;"/><path d="M4427.88,4496.92l-302.004,787.025c-22.137,57.704 -59.725,108.25 -108.612,146.071l-136.696,105.683l-90.354,69.88c-2.375,1.825 -4.755,3.645 -7.163,5.366c-117.104,85.763 -275.904,86.838 -394.083,3.254c-3.967,-2.791 -7.871,-5.691 -11.746,-8.687l-86.479,-66.917l-140.346,-108.608c-48.854,-37.792 -86.413,-88.304 -108.542,-145.979l-302.008,-787.088l456.475,392.484c222.85,191.608 552.229,191.608 775.05,-0l456.508,-392.484Z" style="fill:#7a2c1b;fill-rule:nonzero;"/><path d="M6045.37,3447.15l-1428.82,-116.587l927.887,-1092.77c-82.566,457.775 104.53,922.358 481.305,1195.15l19.629,14.208Z" style="fill:#50939a;fill-rule:nonzero;"/><path d="M5545.58,4732.74l-927.883,-1092.77l1428.82,-116.587c-382.084,265.308 -578.296,726.116 -504.767,1185.43l3.833,23.925Z" style="fill:#50939a;fill-rule:nonzero;"/><path d="M5849.55,1878.46l-1452.08,1232.98l219.1,219.1l1232.98,-1452.08Z" style="fill:#377277;fill-rule:nonzero;"/><path d="M5849.89,5092.85l-1232.99,-1452.09l-219.1,219.1l1452.09,1232.99Z" style="fill:#377277;fill-rule:nonzero;"/><path d="M6515.19,3485.49l-1898.63,-154.929l-0,309.854l1898.63,-154.925Z" style="fill:#377277;fill-rule:nonzero;"/><path d="M4397.47,3111.44l219.083,219.116l-0,309.85l-218.746,219.454l-0.337,-0.337c-206.58,-206.579 -206.58,-541.504 -0,-748.083" style="fill:#377277;fill-rule:nonzero;"/><path d="M1231.35,3524.16l1428.82,116.592l-927.884,1092.77c82.567,-457.771 -104.529,-922.359 -481.308,-1195.15l-19.625,-14.213Z" style="fill:#50939a;fill-rule:nonzero;"/><path d="M1731.14,2238.57l927.883,1092.77l-1428.82,116.587c382.079,-265.312 578.291,-726.121 504.762,-1185.43l-3.829,-23.925Z" style="fill:#50939a;fill-rule:nonzero;"/><path d="M1427.17,5092.85l1452.09,-1232.99l-219.1,-219.1l-1232.99,1452.09Z" style="fill:#377277;fill-rule:nonzero;"/><path d="M1426.83,1878.46l1232.99,1452.08l219.096,-219.1l-1452.08,-1232.98Z" style="fill:#377277;fill-rule:nonzero;"/><path d="M761.535,3485.82l1898.63,154.929l-0,-309.858l-1898.63,154.929Z" style="fill:#377277;fill-rule:nonzero;"/><path d="M2879.26,3859.86l-219.088,-219.113l0,-309.854l218.746,-219.454l0.342,0.342c206.575,206.575 206.575,541.504 -0,748.079" style="fill:#377277;fill-rule:nonzero;"/><path d="M3272.03,4791.4c0,-200.734 -25.462,-375.992 -63.312,-469.75c-5.554,13.77 -10.846,29.291 -15.829,46.395c-28.946,99.396 -47.484,252.092 -47.484,423.355c0,171.266 18.538,324.004 47.492,423.358c4.979,17.125 10.267,32.637 15.821,46.396c37.85,-93.759 63.312,-269.017 63.312,-469.754" style="fill:#dcd2b7;fill-rule:nonzero;"/><path d="M4026.32,4791.4c-0,-200.734 -25.463,-375.992 -63.313,-469.75c-5.554,13.77 -10.845,29.291 -15.829,46.395c-28.946,99.396 -47.483,252.092 -47.483,423.355c-0,171.266 18.537,324.004 47.492,423.358c4.979,17.125 10.266,32.637 15.82,46.396c37.85,-93.759 63.313,-269.017 63.313,-469.754" style="fill:#dcd2b7;fill-rule:nonzero;"/><path d="M3388.97,5614.21c-3.967,-2.796 -7.875,-5.692 -11.746,-8.688l-86.479,-66.921c7.683,-53.279 17.408,-100.437 28.77,-139.4c4.975,-17.116 10.288,-32.612 15.817,-46.408c23.921,59.267 42.933,151.146 53.638,261.417" style="fill:#dcd2b7;fill-rule:nonzero;"/><path d="M3880.57,5535.7l-90.354,69.879c-2.375,1.825 -4.75,3.646 -7.158,5.371c8.266,-83.287 21.25,-155.933 37.495,-211.754c4.98,-17.117 10.28,-32.612 15.846,-46.408c18,44.554 33.2,107.533 44.171,182.912" style="fill:#dcd2b7;fill-rule:nonzero;"/><path d="M3725.19,4919.73l-0,1110.33l-72.425,-72.438l-72.442,-72.442l-72.437,72.442l-72.442,72.438l0,-1110.33l289.746,0Z" style="fill:#b2492d;fill-rule:nonzero;"/><path d="M5082.76,3795.26l-199.583,349.1l-891.53,763.867c-234.391,200.833 -580.275,200.533 -814.325,-0.696l-886.808,-762.462l-213.129,-374.175c-89.342,-156.85 -105.8,-344.884 -45.054,-514.871l219.658,-614.667c88.05,-246.392 321.471,-410.854 583.125,-410.854l1429.05,-0c245.492,-0 467.804,145.021 566.733,369.692l281.009,638.17c79.15,179.746 68.337,386.392 -29.146,556.896" style="fill:#5da5a8;fill-rule:nonzero;"/><path d="M4756.3,3110.13l19.321,98.591c66.529,339.675 -93.233,571.25 -434.396,629.663l-99.029,16.946l-19.317,-98.592c-66.529,-339.675 93.23,-571.25 434.392,-629.663l99.029,-16.945Z" style="fill:#f4f5f6;fill-rule:nonzero;"/><path d="M4601.45,3334.59c81.817,56.446 102.384,168.525 45.938,250.342c-56.442,81.817 -168.525,102.379 -250.338,45.938c-81.812,-56.442 -102.383,-168.525 -45.941,-250.342c56.445,-81.813 168.525,-102.379 250.341,-45.938" style="fill:#4fb2b7;fill-rule:nonzero;"/><path d="M4544.52,3417.11c36.241,25 45.354,74.65 20.354,110.892c-25.004,36.245 -74.654,45.354 -110.896,20.354c-36.246,-25.004 -45.354,-74.654 -20.35,-110.896c25,-36.242 74.65,-45.354 110.892,-20.35" style="fill:#5b5e5d;fill-rule:nonzero;"/><path d="M4756.3,3110.13l19.321,98.591c1.679,8.517 3.179,16.909 4.558,25.279c-315.47,63.634 -466.229,282.159 -413.704,599.667c-8.316,1.688 -16.687,3.267 -25.25,4.717l-99.029,16.946l-19.317,-98.592c-66.529,-339.675 93.23,-571.25 434.392,-629.663l99.029,-16.945Z" style="fill:#377277;fill-rule:nonzero;"/><path d="M2485.95,3110.13l-19.32,98.591c-66.53,339.675 93.233,571.25 434.395,629.663l99.03,16.946l19.316,-98.592c66.529,-339.675 -93.229,-571.25 -434.391,-629.663l-99.03,-16.945Z" style="fill:#f4f5f6;fill-rule:nonzero;"/><path d="M2640.8,3334.59c-81.816,56.446 -102.379,168.525 -45.937,250.342c56.442,81.817 168.525,102.379 250.342,45.938c81.812,-56.442 102.379,-168.525 45.937,-250.342c-56.446,-81.813 -168.525,-102.379 -250.342,-45.938" style="fill:#4fb2b7;fill-rule:nonzero;"/><path d="M2697.73,3417.11c-36.242,25 -45.354,74.65 -20.35,110.892c25,36.245 74.65,45.354 110.892,20.354c36.246,-25.004 45.354,-74.654 20.354,-110.896c-25.004,-36.242 -74.654,-45.354 -110.896,-20.35" style="fill:#5b5e5d;fill-rule:nonzero;"/><path d="M2485.95,3110.13l-19.32,98.591c-1.68,8.517 -3.18,16.909 -4.559,25.279c315.471,63.634 466.229,282.159 413.704,599.667c8.317,1.688 16.692,3.267 25.25,4.717l99.03,16.946l19.316,-98.592c66.529,-339.675 -93.229,-571.25 -434.391,-629.663l-99.03,-16.945Z" style="fill:#377277;fill-rule:nonzero;"/><g opacity="0.15"><path d="M5082.76,3795.27l-199.575,349.1l-248.146,212.605l-374.52,976.029c-27.634,72.058 -74.563,135.133 -135.625,182.325l-283.421,219.208c-35.934,27.763 -75.217,48.95 -116.292,63.567l0,231.962l-144.871,-144.866l0,-3654.68l683.854,-0c245.471,-0 467.805,145 566.713,369.675l281.012,638.187c79.155,179.721 68.355,386.367 -29.129,556.883" style="fill:#030404;fill-rule:nonzero;"/></g><path d="M3561.14,1525.01l-78.892,966.788l-739.404,-627.838c309.746,55.867 624.104,-70.729 808.679,-325.667l9.617,-13.283Z" style="fill:#50939a;fill-rule:nonzero;"/><path d="M4431.01,1863.19l-739.405,627.842l-78.891,-966.792c179.521,258.53 491.321,391.296 802.108,341.542l16.188,-2.592Z" style="fill:#50939a;fill-rule:nonzero;"/><path d="M2499.71,1657.51l834.283,982.534l148.25,-148.25l-982.533,-834.284Z" style="fill:#377277;fill-rule:nonzero;"/><path d="M4674.68,1657.28l-982.534,834.283l148.255,148.255l834.279,-982.538Z" style="fill:#377277;fill-rule:nonzero;"/><path d="M3587.08,1207.12l-104.83,1284.68l209.659,-0l-104.829,-1284.68Z" style="fill:#377277;fill-rule:nonzero;"/><path d="M3333.99,2640.04l148.259,-148.242l209.658,0l148.492,148.013l-0.234,0.229c-139.771,139.779 -366.396,139.779 -506.175,-0" style="fill:#377277;fill-rule:nonzero;"/><path d="M3852.51,4749.95c14.467,14.466 2.738,49.645 -26.192,78.575c-28.929,28.933 -64.112,40.658 -78.579,26.195c-14.466,-14.466 -2.741,-49.65 26.196,-78.579c28.929,-28.933 64.108,-40.662 78.575,-26.191" style="fill:#1d5d60;fill-rule:nonzero;"/><path d="M3454.02,4857.24c-13.479,13.479 -47.863,0.954 -76.796,-27.975c-28.929,-28.933 -41.458,-63.312 -27.979,-76.796c13.483,-13.479 47.866,-0.95 76.796,27.98c28.933,28.933 41.454,63.316 27.979,76.791" style="fill:#1d5d60;fill-rule:nonzero;"/></g></svg>