<?xml version="1.0" encoding="UTF-8" standalone="no"?><!DOCTYPE svg PUBLIC "-//W3C//DTD SVG 1.1//EN" "http://www.w3.org/Graphics/SVG/1.1/DTD/svg11.dtd"><svg width="100%" height="100%" viewBox="0 0 7220 7221" version="1.1" xmlns="http://www.w3.org/2000/svg" xmlnsXlink="http://www.w3.org/1999/xlink" xmlSpace="preserve" xmlnsSerif="http://www.serif.com/" style="fill-rule:evenodd;clip-rule:evenodd;stroke-linejoin:round;stroke-miterlimit:2;"><rect id="MM6" x="0.083" y="0.988" width="7219.25" height="7219.25" style="fill:none;"/><g id="BG"><path d="M5563.24,3256.71c-0,1035.6 -839.517,1875.11 -1875.11,1875.11c-1035.6,-0 -1875.11,-839.517 -1875.11,-1875.11c-0,-1035.6 839.517,-1875.11 1875.11,-1875.11c1035.6,-0 1875.11,839.512 1875.11,1875.11" style="fill:#4a50a2;fill-rule:nonzero;"/><path d="M2535.34,3591.87c-0,12.167 -1.167,24.084 -3.379,35.625c2.212,8.875 3.379,18.167 3.379,27.75l-0,329.834c-0,63.916 -51.796,115.708 -115.667,115.708l-106.417,0c-63.875,0 -115.67,-51.792 -115.67,-115.708l-0,-204.213l-30.913,0c-104.417,0 -189.046,-84.621 -189.046,-188.996l0,-548.625c0,-104.375 84.629,-189 189.046,-189l179.667,0c104.371,0 189,84.625 189,189l-0,548.625Z" style="fill:#b8aa8a;fill-rule:nonzero;"/><path d="M5392.88,3043.25l0,548.625c0,104.375 -84.666,188.996 -189.041,188.996l-30.917,-0l-0,204.212c-0,63.917 -51.792,115.709 -115.708,115.709l-106.375,-0c-63.875,-0 -115.667,-51.792 -115.667,-115.709l-0,-329.833c-0,-9.583 1.167,-18.875 3.375,-27.75c-2.208,-11.542 -3.375,-23.458 -3.375,-35.625l-0,-548.625c-0,-104.375 84.625,-189 189,-189l179.667,-0c104.375,-0 189.041,84.625 189.041,189" style="fill:#b8aa8a;fill-rule:nonzero;"/><path d="M4916.81,5444.03l-1226.88,394.092l-1180.47,-394.092l-173.329,-2192.7l2707.6,0l-126.917,2192.7Z" style="fill:#dcd2b7;fill-rule:nonzero;"/><path d="M5200.54,3182.23c-0,836.871 -678.417,1515.28 -1515.28,1515.28c-836.871,0 -1515.28,-678.412 -1515.28,-1515.28c-0,-836.867 678.412,-1515.28 1515.28,-1515.28c836.867,-0 1515.28,678.412 1515.28,1515.28" style="fill:#dcd2b7;fill-rule:nonzero;"/><path d="M4766.6,4980.33l-0,246.291l-1.042,-2.708l0,-246.208l1.042,2.625Z" style="fill:#85724f;fill-rule:nonzero;"/><path d="M5078.1,3780.87l-95.042,1588.21c0,256.205 -169.375,481.625 -415.5,552.871l-876.542,253.875l-876.583,-253.875c-246.125,-71.246 -415.5,-296.666 -415.5,-552.871l-95.042,-1563.12c221.792,117.913 360.417,348.621 360.417,599.746l0,0.588l943.708,-99.754c0,95.587 -73.166,175.208 -168.37,183.42l-512.046,43.917l-145.767,377.533c-65.975,170.88 13.208,363.517 180.292,438.596l582.629,261.8c89.404,40.171 191.683,40.388 281.254,0.588l592.029,-263.038c167.913,-74.604 247.796,-267.791 181.613,-439.2l-145.3,-376.279l-512,-43.917c-95.246,-8.212 -168.375,-87.833 -168.375,-183.42l943.708,75.795c-0.208,-238.583 124.792,-459.795 329.292,-582.754l31.125,-18.708Z" style="fill:#85724f;fill-rule:nonzero;"/><path d="M3938.93,3942.39c-0,61.879 -22.663,118.5 -60.125,161.958c-45.538,52.834 -112.954,86.292 -188.167,86.292c-75.208,0 -142.621,-33.458 -188.167,-86.333c-37.454,-43.454 -60.083,-100.038 -60.083,-161.917l496.542,0Z" style="fill:#c1b493;fill-rule:nonzero;"/><path d="M4111.64,3942.39c-0,95.379 -77.334,172.708 -172.709,172.708c-21.125,0 -41.375,-3.791 -60.125,-10.75c-65.75,-24.412 -112.625,-87.708 -112.625,-161.958l345.459,0Z" style="fill:#c1b493;fill-rule:nonzero;"/><path d="M3615.14,3942.39c0,74.25 -46.875,137.588 -112.667,161.917c-18.704,7 -38.958,10.791 -60.083,10.791c-95.375,0 -172.704,-77.329 -172.704,-172.708l345.454,0Z" style="fill:#c1b493;fill-rule:nonzero;"/><g opacity="0.1"><path d="M3979.55,2169.33c0,83.042 -130.75,150.333 -292.083,150.333l0,-1239.12c25.671,32 50.083,67.871 73.042,107.5c133.541,230.375 219.041,584.292 219.041,981.292" style="fill:#030404;fill-rule:nonzero;"/></g><g opacity="0.1"><path d="M5398.62,3043.25l-0,548.625c-0,104.375 -84.709,188.996 -189.042,188.996l-30.917,-0l0,204.212c0,63.329 -50.875,114.704 -113.958,115.667l-75.917,1268.33c0,256.204 -169.375,481.625 -415.5,552.875l-876.541,253.871l-5.75,-1.662l-0,-5090.88c0.708,-0.954 1.462,-1.87 2.208,-2.791c25.625,32.004 50.083,67.916 73.042,107.546c76.125,131.291 136.583,302.75 174.541,499.412c610.459,101.254 1097.58,567.375 1229.88,1166.8l38.917,-0c104.333,-0 189.042,84.625 189.042,189" style="fill:#161615;fill-rule:nonzero;"/></g><path d="M3979.55,2169.33l-584.175,0c-0,-465.254 117.479,-871.5 292.087,-1088.82c25.633,31.971 50.088,67.921 73.075,107.55c133.521,230.363 219.013,584.292 219.013,981.271" style="fill:#efeedc;fill-rule:nonzero;"/><path d="M3979.55,2169.33c-0,83.038 -130.771,150.354 -292.088,150.354c-161.312,0 -292.087,-67.316 -292.087,-150.354c-0,-83.037 130.775,-150.35 292.087,-150.35c161.317,0 292.088,67.313 292.088,150.35" style="fill:#efeedc;fill-rule:nonzero;"/><path d="M4448.53,3253.95l-117.783,120.646c-405.813,415.608 -877.963,415.608 -1283.78,0l-117.783,-120.646l117.783,-120.646c405.812,-415.608 877.962,-415.608 1283.78,0l117.783,120.646Z" style="fill:#f4f5f6;fill-rule:nonzero;"/><path d="M3990.9,3253.95c-0,166.809 -135.225,302.034 -302.034,302.034c-166.804,-0 -302.033,-135.225 -302.033,-302.034c0,-166.808 135.229,-302.033 302.038,-302.033c166.804,-0 302.029,135.225 302.029,302.033" style="fill:#6c94cd;fill-rule:nonzero;"/><path d="M3822.66,3253.95c-0,73.892 -59.904,133.792 -133.796,133.792c-73.892,-0 -133.796,-59.9 -133.796,-133.792c0,-73.891 59.904,-133.791 133.8,-133.791c73.888,-0 133.792,59.9 133.792,133.791" style="fill:#5b5e5d;fill-rule:nonzero;"/><path d="M2921.97,3254.27l118.342,121.221c10.212,10.483 20.42,20.604 30.72,30.533c390.392,-376.933 838.05,-376.933 1228.45,-0c10.3,-9.929 20.509,-20.05 30.725,-30.533l118.338,-121.221l-118.342,-121.221c-407.75,-417.588 -882.137,-417.588 -1289.89,-0l-118.342,121.221Z" style="fill:#b8aa8a;fill-rule:nonzero;"/><path d="M4448.53,2616.92l-118.341,-121.221c-10.213,-10.487 -20.421,-20.604 -30.721,-30.537c-390.392,376.933 -838.05,376.933 -1228.45,-0c-10.3,9.933 -20.508,20.05 -30.721,30.537l-118.342,121.221l118.342,121.221c407.75,417.583 882.138,417.583 1289.89,0l118.341,-121.221Z" style="fill:#85724f;fill-rule:nonzero;"/><path d="M4273.59,4967.73l-1176.67,0l91.213,-93.441c1.4,-1.438 2.767,-2.838 4.171,-4.242c312.825,-317.071 675.916,-316.208 988.491,2.625c0.509,0.537 1.042,1.075 1.584,1.617l91.212,93.441Z" style="fill:#b8aa8a;fill-rule:nonzero;"/><path d="M4290.27,4967.73c47.342,0 71.354,56.975 38.283,90.859l-24.766,25.375l-0.034,0.037c-46.345,47.463 -93.587,89.313 -141.512,125.483c-307.579,232.396 -643.346,233.117 -951.067,2.188c-47.958,-35.988 -95.204,-77.583 -141.621,-124.829c-0.895,-0.934 -1.829,-1.867 -2.766,-2.842l-24.804,-25.404c-33.075,-33.883 -9.071,-90.867 38.279,-90.867l1210.01,0Z" style="fill:#998b6e;fill-rule:nonzero;"/><path d="M4296.89,4967.73l-126.591,0c2.841,-33.146 6.366,-64.929 10.5,-95.058c12.583,-91.971 30.846,-168.658 52.812,-221.721c6.292,15.242 12.263,32.354 17.904,51.267c20.463,68.633 36.35,160.241 45.375,265.512" style="fill:#efeedc;fill-rule:nonzero;"/><path d="M3203.16,4967.73l-126.592,0c11.504,-134.25 34.154,-246.35 63.279,-316.779c6.292,15.242 12.296,32.354 17.938,51.267c13.846,46.416 25.562,103.291 34.521,167.829c4.312,30.921 7.941,63.567 10.854,97.683" style="fill:#efeedc;fill-rule:nonzero;"/></g></svg>