<?xml version="1.0" encoding="UTF-8" standalone="no"?>
<!DOCTYPE svg PUBLIC "-//W3C//DTD SVG 1.1//EN" "http://www.w3.org/Graphics/SVG/1.1/DTD/svg11.dtd">
<svg width="100%" height="100%" viewBox="0 0 15 44" version="1.1" xmlns="http://www.w3.org/2000/svg" xmlnsXlink="http://www.w3.org/1999/xlink" xmlSpace="preserve" xmlnsSerif="http://www.serif.com/" style="fill-rule:evenodd;clip-rule:evenodd;stroke-linejoin:round;stroke-miterlimit:2;">
    <g transform="matrix(1,0,0,1,0.290689,0.56)">
        <g id="Layer_2">
            <path d="M14.27,35L7.21,43.44L0.11,34.89C-0.061,34.678 -0.03,34.364 0.18,34.19C0.269,34.113 0.383,34.07 0.501,34.07C0.648,34.07 0.787,34.136 0.88,34.25L6.69,41.25L6.69,0.5C6.69,0.226 6.916,0 7.19,0C7.464,-0 7.69,0.226 7.69,0.5L7.69,41.29L13.5,34.29C13.593,34.176 13.732,34.11 13.879,34.11C13.997,34.11 14.111,34.153 14.2,34.23C14.337,34.323 14.419,34.478 14.419,34.644C14.419,34.778 14.365,34.906 14.27,35Z" style="fill:rgb(50,50,50);fill-rule:nonzero;"/>
        </g>
    </g>
</svg>
