<svg id="Layer_1" data-name="Layer 1" xmlns="http://www.w3.org/2000/svg" viewBox="0 0 72 72"><defs><style>.cls-1{fill:#fafbfb;}</style></defs><path class="cls-1" d="M53.48,23.65l-32-10.6.42-.42a2.83,2.83,0,0,0,.15-3.89,2.78,2.78,0,0,0-4-.1l-2.71,2.71a1.5,1.5,0,0,0,0,2.13L37.8,35.94l0,0,.17-.09.15-.08.11,0,.14-.05a.47.47,0,0,1,.15-.06,2.25,2.25,0,0,1,.42-.13l.16,0,.12,0,.13,0a1,1,0,0,1,.24,0l.21,0h.46l.17,0,.19,0,.23,0,.21,0,.2.06.2.06.19.07.23.1.17.09.33.19.08,0,.12.08.09.08h0l.1.09.15.12.16.16a4.38,4.38,0,1,1-6.2,6.2l-.15-.16-.13-.15-.09-.12-.09-.11a.83.83,0,0,0-.08-.12l0-.07c-.07-.11-.13-.22-.19-.33l-.09-.17-.1-.24a1.34,1.34,0,0,0-.07-.18l-.06-.2a4.54,4.54,0,0,1-.18-1.46c0-.07,0-.14,0-.21a1.07,1.07,0,0,1,0-.25.89.89,0,0,0,0-.15l.06-.25c0-.13.07-.25.11-.38h0a1.46,1.46,0,0,1,.07-.19A1.11,1.11,0,0,1,36,37.9l0-.07a1.19,1.19,0,0,1,.08-.16l.11-.19h0L13.8,15a1.5,1.5,0,0,0-2.13,0L8.54,18.16a2.82,2.82,0,0,0-.1,3.95,2.78,2.78,0,0,0,4,0l.47-.48L23.81,53.1A3.9,3.9,0,0,0,27,55.69l13.77,1.56A3.91,3.91,0,0,0,44,56.13L56.31,43.82a3.88,3.88,0,0,0,1.12-3.12L56.13,27A3.87,3.87,0,0,0,53.48,23.65Z"/><rect class="cls-1" x="44.08" y="50.72" width="21.48" height="7.9" rx="2.15" transform="translate(-22.6 54.78) rotate(-45)"/></svg>