<svg id="Layer_1" data-name="Layer 1" xmlns="http://www.w3.org/2000/svg" viewBox="0 0 72 72"><defs><style>.cls-1{fill:#fafbfb;}</style></defs><path class="cls-1" d="M69.3,47.22,24.79,2.7a3,3,0,0,0-4.19,0L2.7,20.6a3,3,0,0,0,0,4.18L47.22,69.3a3,3,0,0,0,4.18,0L69.3,51.39A2.93,2.93,0,0,0,69.3,47.22ZM50.59,36l2,2a1,1,0,0,1,0,1.48l-2,2a1.06,1.06,0,0,1-1.49,0l-2-2a1,1,0,0,1,0-1.48l2-2A1.08,1.08,0,0,1,50.59,36ZM30.35,32.47l2-2a1.07,1.07,0,0,1,1.49,0l2,2a1,1,0,0,1,0,1.48l-2,2a1.06,1.06,0,0,1-1.49,0l-2-2A1,1,0,0,1,30.35,32.47Zm-2.08-2.08a1,1,0,0,1-1.48,0l-2-2a1,1,0,0,1,0-1.48l2-2a1,1,0,0,1,1.48,0l2,2a1,1,0,0,1,0,1.48Zm7.65,7.66,2-2a1.05,1.05,0,0,1,1.47,0l2,2a1.06,1.06,0,0,1,0,1.48l-2,2a1,1,0,0,1-1.47,0l-2-2A1.06,1.06,0,0,1,35.92,38.05Zm5.59,5.58,2-2a1.06,1.06,0,0,1,1.48,0l2,2a1,1,0,0,1,0,1.48l-2,2a1,1,0,0,1-1.48,0l-2-2A1,1,0,0,1,41.51,43.63ZM45,30.44l2,2A1,1,0,0,1,47,34l-2,2a1,1,0,0,1-1.48,0l-2-2a1,1,0,0,1,0-1.48l2-2A1.06,1.06,0,0,1,45,30.44Zm-5.59-5.57,2,2a1.06,1.06,0,0,1,0,1.48l-2,2a1,1,0,0,1-1.47,0l-2-2a1.06,1.06,0,0,1,0-1.48l2-2A1,1,0,0,1,39.42,24.87Zm-5.57-5.58,2,2a1,1,0,0,1,0,1.48l-2,2a1.06,1.06,0,0,1-1.49,0l-2-2a1,1,0,0,1,0-1.48l2-2A1.06,1.06,0,0,1,33.85,19.29Zm-5.58-5.58,2,2a1,1,0,0,1,0,1.48l-2,2a1,1,0,0,1-1.48,0l-2-2a1,1,0,0,1,0-1.48l2-2A1,1,0,0,1,28.27,13.71Zm-9.09-3.56,2-2a1,1,0,0,1,1.47,0l2,2a1.06,1.06,0,0,1,0,1.48l-2,2a1,1,0,0,1-1.47,0l-2-2A1.06,1.06,0,0,1,19.18,10.15ZM16,18.08l2-2a1.06,1.06,0,0,1,1.49,0l5.25,5.25a1.06,1.06,0,0,1,0,1.48l-2,2a1,1,0,0,1-1.47,0L16,19.56A1,1,0,0,1,16,18.08Zm3.11,15.75-5.25-5.25a1,1,0,0,1,0-1.48l2-2a1.06,1.06,0,0,1,1.48,0l5.26,5.26a1.06,1.06,0,0,1,0,1.48l-2,2A1,1,0,0,1,19.07,33.83ZM34.89,49.65,22.62,37.39a1.06,1.06,0,0,1,0-1.48l2-2a1,1,0,0,1,1.47,0L38.39,46.14a1.08,1.08,0,0,1,0,1.49l-2,2A1,1,0,0,1,34.89,49.65ZM47.2,56.43l-2,2a1,1,0,0,1-1.47,0L38.43,53.2a1.08,1.08,0,0,1,0-1.48l2-2a1,1,0,0,1,1.48,0L47.2,55A1.06,1.06,0,0,1,47.2,56.43Zm8.65-2.51-2,2a1,1,0,0,1-1.48,0l-5.25-5.25a1,1,0,0,1,0-1.48l2-2a1.08,1.08,0,0,1,1.49,0l5.26,5.26A1,1,0,0,1,55.85,53.92Zm-1.17-6.79-2-2a1.06,1.06,0,0,1,0-1.48l2-2a1.06,1.06,0,0,1,1.48,0l2,2a1.06,1.06,0,0,1,0,1.48l-2,2A1,1,0,0,1,54.68,47.13Zm9.1,3.56-2,2a1,1,0,0,1-1.47,0l-2-2a1.06,1.06,0,0,1,0-1.48l2-2a1.05,1.05,0,0,1,1.47,0l2,2A1.06,1.06,0,0,1,63.78,50.69Z"/></svg>