<?xml version="1.0" encoding="UTF-8" standalone="no"?><!DOCTYPE svg PUBLIC "-//W3C//DTD SVG 1.1//EN" "http://www.w3.org/Graphics/SVG/1.1/DTD/svg11.dtd"><svg width="100%" height="100%" viewBox="0 0 7220 7220" version="1.1" xmlns="http://www.w3.org/2000/svg" xmlnsXlink="http://www.w3.org/1999/xlink" xmlSpace="preserve" xmlnsSerif="http://www.serif.com/" style="fill-rule:evenodd;clip-rule:evenodd;stroke-linecap:round;stroke-miterlimit:10;"><rect id="MM2" x="0.689" y="0.17" width="7219.25" height="7219.25" style="fill:none;"/><g id="BG"><path d="M5437.2,3300.95c-0,1024.15 -830.238,1854.39 -1854.39,1854.39c-1024.15,0 -1854.39,-830.237 -1854.39,-1854.39c0,-1024.15 830.238,-1854.39 1854.39,-1854.39c1024.15,-0 1854.39,830.242 1854.39,1854.39" style="fill:#d47c28;fill-rule:nonzero;"/><path d="M4588.84,1492.24l2.129,177.3c7.279,610.825 -343.817,961.925 -954.642,954.641l-177.3,-2.129l-2.129,-177.296c-7.283,-610.829 343.813,-961.929 954.642,-954.645l177.3,2.129Z" style="fill:#cfa65f;fill-rule:nonzero;"/><path d="M4248.53,1832.54c124.042,124.046 124.042,325.154 0,449.2c-124.042,124.038 -325.154,124.038 -449.196,0c-124.041,-124.046 -124.041,-325.154 0,-449.2c124.042,-124.041 325.154,-124.041 449.196,0" style="fill:#cfa65f;fill-rule:nonzero;"/><path d="M4123.43,1957.65c54.95,54.95 54.95,144.038 0,198.988c-54.95,54.945 -144.037,54.945 -198.983,-0c-54.95,-54.95 -54.95,-144.038 -0,-198.988c54.946,-54.95 144.033,-54.95 198.983,0" style="fill:#cfa65f;fill-rule:nonzero;"/><path d="M3608.08,1313.13l74.883,73.105c257.955,251.875 257.955,544.92 0,796.795l-74.883,73.105l-74.879,-73.105c-257.954,-251.875 -257.954,-544.92 -0,-796.795l74.879,-73.105Z" style="fill:#cfa65f;fill-rule:nonzero;"/><path d="M3608.08,1597.17c103.533,-0 187.463,83.929 187.463,187.462c-0,103.533 -83.93,187.458 -187.463,187.458c-103.533,0 -187.462,-83.925 -187.462,-187.458c-0,-103.533 83.929,-187.462 187.462,-187.462" style="fill:#cfa65f;fill-rule:nonzero;"/><path d="M3608.08,1701.59c45.863,0 83.042,37.18 83.042,83.046c-0,45.859 -37.179,83.038 -83.042,83.038c-45.862,-0 -83.042,-37.179 -83.042,-83.038c0,-45.866 37.18,-83.046 83.042,-83.046" style="fill:#cfa65f;fill-rule:nonzero;"/><path d="M3759.27,2444.74l-2.154,177.334l-177.279,2.1c-610.812,7.262 -961.917,-343.792 -954.654,-954.654l2.15,-177.284l175.629,-2.15c86.738,65.104 167.917,115.229 233.567,145.229c16.779,7.663 32.55,13.971 47.175,18.93c-21.734,-43.817 -59.142,-97.505 -108.721,-156.196c505.2,55.337 790.85,395.121 784.287,946.691" style="fill:#cfa65f;fill-rule:nonzero;"/><path d="M3416.82,2281.74c-124.042,124.042 -325.155,124.042 -449.196,0c-124.042,-124.046 -124.042,-325.154 -0,-449.2c124.041,-124.037 325.154,-124.037 449.196,0c124.041,124.046 124.041,325.154 -0,449.2" style="fill:#cfa65f;fill-rule:nonzero;"/><path d="M3291.72,2156.64c-54.95,54.95 -144.038,54.95 -198.984,0c-54.95,-54.95 -54.95,-144.037 0,-198.987c54.946,-54.946 144.034,-54.946 198.984,-0c54.95,54.95 54.95,144.037 -0,198.987" style="fill:#cfa65f;fill-rule:nonzero;"/><path d="M5142.35,1974.69l3.329,277.363c11.392,955.562 -537.854,1504.81 -1493.42,1493.42l-277.359,-3.333l-3.333,-277.362c-11.392,-955.563 537.854,-1504.81 1493.42,-1493.42l277.362,3.333Z" style="fill:#cfa65f;fill-rule:nonzero;"/><path d="M4609.98,2507.05c194.046,194.046 194.046,508.662 0,702.708c-194.05,194.05 -508.662,194.05 -702.708,0c-194.05,-194.046 -194.05,-508.662 -0,-702.708c194.046,-194.046 508.658,-194.046 702.708,-0" style="fill:#cfa65f;fill-rule:nonzero;"/><path d="M4414.27,2702.77c85.958,85.958 85.958,225.325 -0,311.287c-85.958,85.958 -225.325,85.958 -311.283,0c-85.959,-85.962 -85.959,-225.329 -0,-311.287c85.958,-85.959 225.325,-85.959 311.283,-0" style="fill:#cfa65f;fill-rule:nonzero;"/><path d="M3841.25,3742.13l-277.363,3.333c-955.562,11.388 -1504.81,-537.858 -1493.42,-1493.42l3.334,-277.359l277.362,-3.333c955.563,-11.392 1504.81,537.854 1493.42,1493.42l-3.333,277.362Z" style="fill:#cfa65f;fill-rule:nonzero;"/><path d="M3308.89,3209.76c-194.05,194.046 -508.663,194.046 -702.713,-0c-194.045,-194.046 -194.045,-508.663 0.005,-702.708c194.045,-194.05 508.658,-194.05 702.708,-0c194.046,194.045 194.046,508.662 -0,702.708" style="fill:#cfa65f;fill-rule:nonzero;"/><path d="M3113.17,3014.05c-85.959,85.958 -225.325,85.958 -311.284,-0c-85.962,-85.963 -85.962,-225.329 0,-311.288c85.959,-85.958 225.325,-85.958 311.284,0c85.958,85.959 85.958,225.325 -0,311.288" style="fill:#cfa65f;fill-rule:nonzero;"/><path d="M2351.15,5005.58l-277.337,-3.354l-1.15,-96.6c58.037,-38.962 104.512,-76.625 135.512,-109.925c-15.375,0.55 -32.3,2.154 -50.629,4.708c-26.091,3.655 -54.937,9.263 -85.987,16.775l-1.1,-92.295c-11.367,-955.555 537.846,-1504.82 1493.45,-1493.4l277.341,3.309l3.355,277.383c11.37,955.558 -537.9,1504.78 -1493.45,1493.4" style="fill:#cfa65f;fill-rule:nonzero;"/><path d="M2606.18,4469.88c-194.05,-194.046 -194.05,-508.663 -0,-702.709c194.046,-194.05 508.662,-194.05 702.708,0c194.05,194.046 194.05,508.663 0,702.709c-194.046,194.045 -508.662,194.045 -702.708,-0" style="fill:#cfa65f;fill-rule:nonzero;"/><path d="M2801.89,4274.16c-85.958,-85.958 -85.958,-225.325 0,-311.287c85.958,-85.958 225.329,-85.958 311.283,-0c85.963,85.962 85.963,225.329 0,311.287c-85.954,85.959 -225.325,85.959 -311.283,0" style="fill:#cfa65f;fill-rule:nonzero;"/><path d="M3374.91,3234.8l277.362,-3.333c955.563,-11.388 1504.81,537.854 1493.42,1493.42l-3.334,277.359l-277.358,3.333c-955.567,11.392 -1504.81,-537.854 -1493.42,-1493.42l3.33,-277.362Z" style="fill:#cfa65f;fill-rule:nonzero;"/><path d="M3907.28,3767.17c194.05,-194.046 508.663,-194.046 702.709,-0c194.05,194.045 194.05,508.662 -0,702.708c-194.046,194.05 -508.663,194.05 -702.709,-0c-194.05,-194.046 -194.05,-508.663 0,-702.708" style="fill:#cfa65f;fill-rule:nonzero;"/><path d="M4102.99,3962.88c85.958,-85.958 225.329,-85.958 311.287,-0c85.959,85.962 85.959,225.329 0,311.287c-85.958,85.959 -225.329,85.959 -311.287,0c-85.958,-85.958 -85.958,-225.325 -0,-311.287" style="fill:#cfa65f;fill-rule:nonzero;"/><path d="M5498.56,3502.96c41.416,-1.5 93.945,-10.367 154.041,-25.792l-10.166,29.096c-378.446,1085.61 -1224.63,1481.99 -2300.93,1077.75l-312.342,-117.338l109.821,-315.146c378.396,-1085.56 1224.63,-1481.94 2300.88,-1077.69l312.392,117.333l-56.742,162.754c-64.85,39.263 -119.538,78.225 -160.25,113.833c-13.925,12.167 -26.192,23.938 -36.708,35.205" style="fill:#cfa65f;fill-rule:nonzero;"/><path d="M4932.05,3575.37c140.034,298.971 11.196,654.858 -287.779,794.891c-298.971,140.038 -654.858,11.196 -794.891,-287.775c-140.038,-298.975 -11.196,-654.858 287.775,-794.891c298.975,-140.042 654.858,-11.196 794.895,287.775" style="fill:#cfa65f;fill-rule:nonzero;"/><path d="M4630.51,3716.6c62.034,132.438 4.959,290.088 -127.479,352.125c-132.437,62.029 -290.087,4.954 -352.121,-127.483c-62.033,-132.438 -4.958,-290.088 127.479,-352.121c132.438,-62.029 290.088,-4.958 352.121,127.479" style="fill:#cfa65f;fill-rule:nonzero;"/><path d="M3608.08,1867.67l337.108,329.105c1161.3,1133.94 1161.3,2453.21 0,3587.14l-337.108,329.109l-337.112,-329.109c-1161.3,-1133.93 -1161.3,-2453.2 0.004,-3587.14l337.108,-329.105Z" style="fill:#cfa65f;fill-rule:nonzero;"/><path d="M3608.08,3146.41c466.1,-0 843.946,377.846 843.946,843.941c-0,466.096 -377.85,843.946 -843.946,843.946c-466.096,0 -843.942,-377.85 -843.942,-843.946c0,-466.095 377.846,-843.945 843.942,-843.941" style="fill:#cfa65f;fill-rule:nonzero;"/><path d="M3608.08,3616.5c206.471,0 373.85,167.379 373.85,373.85c0,206.471 -167.379,373.846 -373.85,373.846c-206.471,0 -373.85,-167.375 -373.85,-373.846c0,-206.471 167.379,-373.85 373.85,-373.85" style="fill:#cfa65f;fill-rule:nonzero;"/><path d="M4154.44,4532.03l-317.712,102.046c-1094.61,351.479 -1920.59,-85.509 -2245.88,-1188.19l-94.392,-320.071l317.713,-102.05c1094.61,-351.479 1920.59,85.513 2245.88,1188.19l94.387,320.071Z" style="fill:#cfa65f;fill-rule:nonzero;"/><path d="M3353.83,4108.47c-154.387,291.821 -516.112,403.229 -807.929,248.842c-291.821,-154.388 -403.229,-516.113 -248.842,-807.934c154.388,-291.816 516.113,-403.225 807.929,-248.837c291.821,154.387 403.23,516.112 248.842,807.929" style="fill:#cfa65f;fill-rule:nonzero;"/><path d="M3059.51,3952.75c-68.391,129.271 -228.625,178.625 -357.895,110.233c-129.271,-68.391 -178.621,-228.625 -110.234,-357.895c68.392,-129.271 228.629,-178.625 357.896,-110.234c129.271,68.396 178.625,228.629 110.233,357.896" style="fill:#cfa65f;fill-rule:nonzero;"/><path d="M2263.32,3547.27l0.837,0l-0.416,0.721l-0.421,-0.721Z" style="fill:#b1822c;fill-rule:nonzero;"/><path d="M2263.74,3547.99l0.417,0.695l-0.838,0l0.421,-0.695Z" style="fill:#b1822c;fill-rule:nonzero;"/><path d="M4887.41,2581.92c0,225.7 -182.966,408.666 -408.67,408.666c-225.7,0 -408.671,-182.966 -408.671,-408.666c-0,-225.704 182.971,-408.671 408.671,-408.671c225.704,-0 408.67,182.967 408.67,408.671" style="fill:#b1822c;fill-rule:nonzero;"/><path d="M3212.54,4488.48c-0,22.313 -18.088,40.4 -40.4,40.4c-22.313,0 -40.4,-18.087 -40.4,-40.4c-0,-22.308 18.087,-40.4 40.4,-40.4c22.312,0 40.4,18.092 40.4,40.4" style="fill:#b1822c;fill-rule:nonzero;"/><path d="M4162.1,2640.62c0,154.695 125.405,280.1 280.096,280.1c154.696,-0 280.096,-125.405 280.096,-280.1c0,-154.692 -125.4,-280.096 -280.096,-280.096c-154.691,-0 -280.096,125.404 -280.096,280.096" style="fill:#9b6b28;fill-rule:nonzero;"/><path d="M2347.9,2581.92c0,225.7 182.971,408.666 408.671,408.666c225.7,0 408.671,-182.966 408.671,-408.666c0,-225.704 -182.971,-408.671 -408.671,-408.671c-225.7,-0 -408.671,182.967 -408.671,408.671" style="fill:#b1822c;fill-rule:nonzero;"/><path d="M2535.18,2640.62c-0,154.695 125.404,280.1 280.096,280.1c154.695,-0 280.1,-125.405 280.1,-280.1c-0,-154.692 -125.405,-280.096 -280.1,-280.096c-154.692,-0 -280.096,125.404 -280.096,280.096" style="fill:#9b6b28;fill-rule:nonzero;"/><path d="M3692.92,2849.03l-88.742,86.638l-88.737,-86.638c-305.733,-298.525 -305.733,-645.871 -0,-944.387l88.737,-86.638l88.742,86.638l0.15,0.15c-9.517,18.779 -18.883,38.258 -27.996,58.341c-31.15,68.455 -55.387,134.413 -71.512,191.75c-9.517,33.905 -16.225,64.805 -19.934,91.446c-1.7,12.367 -2.754,23.788 -3.104,34.204c27.292,-25.541 58.946,-66.554 91.246,-118.337c28.892,-46.325 58.342,-101.308 85.788,-161.554c3.854,-8.467 7.608,-16.929 11.266,-25.338c237.971,281.742 215.988,598.488 -65.904,873.725" style="fill:#bc9351;fill-rule:nonzero;"/><path d="M3826.38,2376.84c0,122.691 -99.508,222.2 -222.2,222.2c-122.696,-0 -222.15,-99.509 -222.15,-222.2c0,-119.138 93.746,-216.392 211.534,-221.95c-9.517,33.904 -16.23,64.804 -19.934,91.445c-1.7,12.367 -2.754,23.788 -3.104,34.205c27.292,-25.542 58.946,-66.555 91.246,-118.338c94.8,25.338 164.608,111.875 164.608,214.638" style="fill:#bc9351;fill-rule:nonzero;"/><path d="M3604.18,2278.41c54.354,0 98.421,44.063 98.421,98.421c-0,54.354 -44.067,98.417 -98.421,98.417c-54.354,-0 -98.421,-44.063 -98.421,-98.417c0,-54.358 44.067,-98.421 98.421,-98.421" style="fill:#bc9351;fill-rule:nonzero;"/><path d="M2935.21,2054.92l120.18,30.658c414.029,105.667 587.687,406.446 472.183,817.842l-33.538,119.408l-120.183,-30.662c-414.025,-105.667 -587.683,-406.446 -472.179,-817.842l33.537,-119.404Z" style="fill:#bc9351;fill-rule:nonzero;"/><path d="M3103.53,2346.46c106.267,-61.355 242.15,-24.942 303.5,81.325c61.354,106.262 24.946,242.145 -81.321,303.5c-106.267,61.354 -242.15,24.945 -303.504,-81.321c-61.35,-106.267 -24.942,-242.15 81.325,-303.504" style="fill:#bc9351;fill-rule:nonzero;"/><path d="M3165.41,2453.64c47.07,-27.175 107.266,-11.05 134.445,36.025c27.18,47.071 11.046,107.267 -36.025,134.446c-47.075,27.179 -107.27,11.046 -134.445,-36.025c-27.18,-47.075 -11.05,-107.271 36.025,-134.446" style="fill:#bc9351;fill-rule:nonzero;"/><path d="M2749.74,2531.05l120.179,30.659c414.029,105.67 587.688,406.45 472.183,817.845l-33.541,119.405l-120.179,-30.659c-414.025,-105.666 -587.684,-406.446 -472.18,-817.841l33.538,-119.409Z" style="fill:#bc9351;fill-rule:nonzero;"/><path d="M2918.06,2822.59c106.267,-61.359 242.15,-24.946 303.5,81.325c61.355,106.262 24.946,242.146 -81.32,303.496c-106.267,61.354 -242.15,24.945 -303.505,-81.321c-61.354,-106.267 -24.941,-242.146 81.325,-303.5" style="fill:#bc9351;fill-rule:nonzero;"/><path d="M2979.94,2929.77c47.075,-27.179 107.267,-11.05 134.446,36.025c27.179,47.071 11.05,107.267 -36.025,134.442c-47.075,27.183 -107.267,11.05 -134.446,-36.021c-27.175,-47.075 -11.046,-107.271 36.025,-134.446" style="fill:#bc9351;fill-rule:nonzero;"/><path d="M4454.87,2501l-120.179,30.659c-414.025,105.666 -587.687,406.45 -472.179,817.841l33.538,119.409l120.179,-30.663c414.025,-105.662 587.683,-406.446 472.179,-817.837l-33.538,-119.409Z" style="fill:#bc9351;fill-rule:nonzero;"/><path d="M4286.55,2792.54c-106.267,-61.354 -242.15,-24.941 -303.505,81.325c-61.35,106.263 -24.941,242.15 81.325,303.5c106.267,61.354 242.146,24.946 303.505,-81.321c61.35,-106.266 24.941,-242.15 -81.325,-303.504" style="fill:#bc9351;fill-rule:nonzero;"/><path d="M4224.67,2899.72c-47.075,-27.175 -107.266,-11.046 -134.445,36.025c-27.18,47.071 -11.05,107.266 36.025,134.446c47.075,27.179 107.266,11.045 134.445,-36.025c27.175,-47.071 11.05,-107.271 -36.025,-134.446" style="fill:#bc9351;fill-rule:nonzero;"/><path d="M4258.13,2054.92l-120.179,30.658c-414.025,105.667 -587.684,406.446 -472.18,817.842l33.538,119.408l120.179,-30.662c414.029,-105.667 587.683,-406.446 472.179,-817.842l-33.537,-119.404Z" style="fill:#bc9351;fill-rule:nonzero;"/><path d="M4089.81,2346.46c-106.266,-61.355 -242.15,-24.942 -303.5,81.325c-61.354,106.262 -24.945,242.145 81.321,303.5c106.267,61.354 242.15,24.945 303.504,-81.321c61.35,-106.267 24.942,-242.15 -81.325,-303.504" style="fill:#bc9351;fill-rule:nonzero;"/><path d="M4027.93,2453.64c-47.075,-27.175 -107.267,-11.05 -134.446,36.025c-27.179,47.071 -11.046,107.267 36.025,134.446c47.075,27.179 107.267,11.046 134.446,-36.025c27.175,-47.075 11.05,-107.271 -36.025,-134.446" style="fill:#bc9351;fill-rule:nonzero;"/><path d="M2001.3,3496.01l86.642,-88.746c298.521,-305.729 645.837,-305.729 944.358,0l86.642,88.746l-86.642,88.75c-298.521,305.725 -645.837,305.725 -944.358,-0l-86.642,-88.75Z" style="fill:#bc9351;fill-rule:nonzero;"/><path d="M2337.95,3496.01c-0,-122.704 99.475,-222.175 222.179,-222.175c122.704,-0 222.179,99.471 222.179,222.175c0,122.708 -99.475,222.179 -222.179,222.179c-122.704,0 -222.179,-99.471 -222.179,-222.179" style="fill:#bc9351;fill-rule:nonzero;"/><path d="M2461.7,3496.01c0,-54.354 44.067,-98.421 98.421,-98.421c54.359,0 98.421,44.067 98.421,98.421c0,54.358 -44.062,98.421 -98.421,98.421c-54.354,-0 -98.421,-44.063 -98.421,-98.421" style="fill:#bc9351;fill-rule:nonzero;"/><path d="M2238.21,4164.98l30.659,-120.179c105.666,-414.025 406.45,-587.683 817.841,-472.179l119.409,33.538l-30.663,120.179c-105.662,414.029 -406.446,587.687 -817.837,472.179l-119.409,-33.538Z" style="fill:#bc9351;fill-rule:nonzero;"/><path d="M2529.75,3996.66c-61.354,-106.267 -24.946,-242.15 81.325,-303.504c106.262,-61.35 242.146,-24.942 303.5,81.325c61.354,106.266 24.941,242.145 -81.325,303.504c-106.267,61.35 -242.146,24.941 -303.5,-81.325" style="fill:#bc9351;fill-rule:nonzero;"/><path d="M2636.93,3934.78c-27.179,-47.075 -11.05,-107.266 36.025,-134.445c47.071,-27.175 107.267,-11.05 134.446,36.025c27.175,47.075 11.046,107.266 -36.025,134.445c-47.075,27.18 -107.271,11.05 -134.446,-36.025" style="fill:#bc9351;fill-rule:nonzero;"/><path d="M2238.21,2842.06l30.659,120.179c105.666,414.029 406.45,587.687 817.841,472.179l119.409,-33.537l-30.663,-120.18c-105.662,-414.029 -406.446,-587.687 -817.837,-472.179l-119.409,33.538Z" style="fill:#bc9351;fill-rule:nonzero;"/><path d="M2529.75,3010.38c-61.354,106.27 -24.946,242.15 81.325,303.504c106.262,61.35 242.146,24.941 303.5,-81.325c61.354,-106.267 24.941,-242.146 -81.325,-303.504c-106.267,-61.35 -242.146,-24.942 -303.5,81.325" style="fill:#bc9351;fill-rule:nonzero;"/><path d="M2636.93,3072.26c-27.179,47.075 -11.05,107.267 36.025,134.446c47.071,27.175 107.267,11.05 134.446,-36.025c27.175,-47.075 11.046,-107.267 -36.025,-134.446c-47.075,-27.179 -107.271,-11.05 -134.446,36.025" style="fill:#bc9351;fill-rule:nonzero;"/><path d="M5221.4,3496.01l-86.642,-88.746c-298.521,-305.729 -645.837,-305.729 -944.358,0l-86.642,88.746l86.642,88.75c298.521,305.725 645.837,305.725 944.358,-0l86.642,-88.75Z" style="fill:#bc9351;fill-rule:nonzero;"/><path d="M4884.75,3496.01c0,-122.704 -99.475,-222.175 -222.179,-222.175c-122.704,-0 -222.179,99.471 -222.179,222.175c-0,122.708 99.475,222.179 222.179,222.179c122.704,0 222.179,-99.471 222.179,-222.179" style="fill:#bc9351;fill-rule:nonzero;"/><path d="M4760.99,3496.01c0,-54.354 -44.066,-98.421 -98.42,-98.421c-54.359,0 -98.421,44.067 -98.421,98.421c-0,54.358 44.062,98.421 98.421,98.421c54.354,-0 98.42,-44.063 98.42,-98.421" style="fill:#bc9351;fill-rule:nonzero;"/><path d="M4984.49,4164.98l-30.659,-120.179c-105.666,-414.025 -406.45,-587.683 -817.841,-472.179l-119.409,33.538l30.663,120.179c105.662,414.029 406.446,587.687 817.837,472.179l119.409,-33.538Z" style="fill:#bc9351;fill-rule:nonzero;"/><path d="M4692.95,3996.66c61.354,-106.267 24.942,-242.15 -81.325,-303.504c-106.262,-61.35 -242.146,-24.942 -303.5,81.325c-61.354,106.266 -24.946,242.145 81.321,303.504c106.267,61.35 242.15,24.941 303.504,-81.325" style="fill:#bc9351;fill-rule:nonzero;"/><path d="M4585.77,3934.78c27.175,-47.075 11.05,-107.266 -36.025,-134.445c-47.075,-27.175 -107.267,-11.05 -134.446,36.025c-27.179,47.075 -11.05,107.266 36.025,134.445c47.075,27.18 107.267,11.05 134.446,-36.025" style="fill:#bc9351;fill-rule:nonzero;"/><path d="M4648.73,4721.69l29.35,-120.508c101.079,-415.167 -82.966,-709.712 -500.429,-800.867l-121.175,-26.445l-29.35,120.504c-101.079,415.175 82.967,709.712 500.429,800.866l121.175,26.45Z" style="fill:#bc9351;fill-rule:nonzero;"/><path d="M4470.34,4436.2c104.062,-65.025 135.708,-202.095 70.683,-306.158c-65.025,-104.058 -202.096,-135.708 -306.154,-70.679c-104.062,65.021 -135.708,202.092 -70.683,306.15c65.021,104.062 202.091,135.708 306.154,70.687" style="fill:#bc9351;fill-rule:nonzero;"/><path d="M4404.76,4331.24c46.095,-28.804 60.112,-89.521 31.312,-135.621c-28.804,-46.095 -89.525,-60.116 -135.621,-31.308c-46.1,28.804 -60.116,89.521 -31.312,135.617c28.804,46.1 89.525,60.116 135.621,31.312" style="fill:#bc9351;fill-rule:nonzero;"/><path d="M2570.54,4721.69l-29.35,-120.508c-101.079,-415.167 82.967,-709.712 500.43,-800.867l121.175,-26.445l29.354,120.504c101.075,415.175 -82.971,709.712 -500.434,800.866l-121.175,26.45Z" style="fill:#bc9351;fill-rule:nonzero;"/><path d="M2748.93,4436.2c-104.062,-65.025 -135.708,-202.095 -70.683,-306.158c65.025,-104.058 202.096,-135.708 306.154,-70.679c104.062,65.021 135.708,202.092 70.683,306.15c-65.021,104.062 -202.091,135.708 -306.154,70.687" style="fill:#bc9351;fill-rule:nonzero;"/><path d="M2814.52,4331.24c-46.096,-28.804 -60.117,-89.521 -31.312,-135.621c28.804,-46.095 89.525,-60.116 135.62,-31.308c46.096,28.804 60.117,89.521 31.313,135.617c-28.804,46.1 -89.525,60.116 -135.621,31.312" style="fill:#bc9351;fill-rule:nonzero;"/><path d="M4984.49,2842.06l-30.659,120.179c-105.666,414.029 -406.45,587.687 -817.841,472.179l-119.409,-33.537l30.663,-120.18c105.662,-414.029 406.446,-587.687 817.837,-472.179l119.409,33.538Z" style="fill:#bc9351;fill-rule:nonzero;"/><path d="M4692.95,3010.38c61.354,106.27 24.942,242.15 -81.325,303.504c-106.262,61.35 -242.146,24.941 -303.5,-81.325c-61.354,-106.267 -24.946,-242.146 81.321,-303.504c106.267,-61.35 242.15,-24.942 303.504,81.325" style="fill:#bc9351;fill-rule:nonzero;"/><path d="M4585.77,3072.26c27.175,47.075 11.05,107.267 -36.025,134.446c-47.075,27.175 -107.267,11.05 -134.446,-36.025c-27.179,-47.075 -11.05,-107.267 36.025,-134.446c47.075,-27.179 107.267,-11.05 134.446,36.025" style="fill:#bc9351;fill-rule:nonzero;"/><path d="M3832.74,2437.09l-449.346,-0c-258.104,-0 -496.604,137.7 -625.658,361.225l-224.675,389.146c-129.054,223.525 -129.054,498.925 0,722.454l224.675,389.141c129.054,223.53 367.554,361.225 625.658,361.225l449.346,0c258.109,0 496.609,-137.695 625.663,-361.225l224.671,-389.141c129.054,-223.529 129.054,-498.929 -0,-722.454l-224.671,-389.146c-129.054,-223.525 -367.554,-361.225 -625.663,-361.225" style="fill:#b1822c;fill-rule:nonzero;"/><path d="M4061.14,4698.11l-906.133,0l-0,284.13c-0,114.554 92.858,207.412 207.408,207.412l491.317,0c114.55,0 207.408,-92.858 207.408,-207.412l0,-284.13Z" style="fill:#b1822c;fill-rule:nonzero;"/><path d="M2695.75,3332.75l27.779,63.396c95.729,218.4 277.096,286.745 493.15,185.837l62.713,-29.292l-27.784,-63.395c-95.725,-218.4 -277.096,-286.746 -493.15,-185.838l-62.708,29.292Z" style="fill:#fff;fill-rule:nonzero;"/><path d="M2827.97,3382.58c-33.217,88.146 11.312,186.533 99.458,219.75c88.146,33.216 186.533,-11.313 219.75,-99.459c33.221,-88.145 -11.308,-186.529 -99.458,-219.75c-88.146,-33.216 -186.534,11.313 -219.75,99.459" style="fill:#c99836;fill-rule:nonzero;"/><path d="M2916.87,3416.08c-14.716,39.046 5.013,82.63 44.059,97.342c39.045,14.717 82.629,-5.008 97.345,-44.058c14.713,-39.046 -5.012,-82.629 -44.058,-97.342c-39.05,-14.712 -82.629,5.008 -97.346,44.058" style="fill:#220e1d;fill-rule:nonzero;"/><path d="M2674.63,3300.76l28.558,69.184c2.459,5.983 4.975,11.812 7.563,17.579c222.133,-90.246 405.671,-16.525 503.65,202.304c5.862,-2.375 11.712,-4.842 17.625,-7.458l68.483,-30.213l-28.558,-69.187c-98.4,-238.359 -292.896,-316.48 -528.838,-212.421l-68.483,30.212Z" style="fill:#9b6b28;fill-rule:nonzero;"/><path d="M3948.56,4921.96c-0,-256.979 33.4,-481.342 83.05,-601.371c7.283,17.634 14.225,37.5 20.758,59.392c37.971,127.25 62.288,322.729 62.288,541.979c-0,219.25 -24.317,414.783 -62.292,541.979c-6.538,21.917 -13.471,41.784 -20.758,59.392c-49.646,-120.029 -83.046,-344.392 -83.046,-601.371" style="fill:#dcd2b7;fill-rule:nonzero;"/><path d="M3071.96,4921.96c-0,-256.979 33.4,-481.342 83.05,-601.371c7.283,17.634 14.225,37.5 20.758,59.392c37.971,127.25 62.287,322.729 62.287,541.979c0,219.25 -24.316,414.783 -62.291,541.979c-6.538,21.917 -13.471,41.784 -20.754,59.392c-49.65,-120.029 -83.05,-344.392 -83.05,-601.371" style="fill:#dcd2b7;fill-rule:nonzero;"/><path d="M4352.6,4277.86l-0,426.925c-0,119.942 -97.233,217.175 -217.175,217.175l-303.483,-0c-123.65,-0 -223.859,-100.233 -223.859,-223.854c0,123.621 -100.229,223.854 -223.854,223.854l-303.508,-0c-119.946,-0 -217.175,-97.233 -217.175,-217.175l-0,-426.925c-0,-55.383 18.437,-109.196 52.412,-152.938l319.842,-411.841l372.283,-215.429l372.259,215.429l319.845,411.841c33.971,43.742 52.413,97.55 52.413,152.938" style="fill:#c99836;fill-rule:nonzero;"/><path d="M3186.53,4633.92c9.137,20.358 0.045,44.267 -20.313,53.404c-20.354,9.138 -44.267,0.042 -53.4,-20.312c-9.142,-20.355 -0.046,-44.267 20.308,-53.405c20.359,-9.133 44.267,-0.041 53.405,20.313" style="fill:#b1822c;fill-rule:nonzero;"/><path d="M3329.81,4569.61c9.137,20.354 0.041,44.262 -20.313,53.4c-20.354,9.142 -44.266,0.046 -53.404,-20.313c-9.137,-20.35 -0.046,-44.262 20.313,-53.4c20.354,-9.137 44.266,-0.045 53.404,20.313" style="fill:#b1822c;fill-rule:nonzero;"/><path d="M3200.48,4478.83c9.138,20.354 0.046,44.263 -20.312,53.4c-20.354,9.142 -44.267,0.046 -53.4,-20.312c-9.142,-20.35 -0.046,-44.263 20.308,-53.4c20.354,-9.138 44.267,-0.046 53.404,20.312" style="fill:#b1822c;fill-rule:nonzero;"/><path d="M3292.95,4583.9l-1150.4,0" style="fill:none;fill-rule:nonzero;stroke:#eae4d3;stroke-width:20.83px;"/><path d="M3163.42,4495.37l-878.904,-163.596" style="fill:none;fill-rule:nonzero;stroke:#eae4d3;stroke-width:20.83px;"/><path d="M3150.83,4650.47l-808.683,150.525" style="fill:none;fill-rule:nonzero;stroke:#eae4d3;stroke-width:20.83px;"/><path d="M3388.02,3324.03c-29.608,24.334 -73.337,20.054 -97.667,-9.55l-88.116,-107.221c-24.334,-29.608 -20.054,-73.337 9.554,-97.666c29.608,-24.334 73.333,-20.054 97.667,9.55l88.112,107.225c24.333,29.604 20.058,73.329 -9.55,97.662" style="fill:#9b6b28;fill-rule:nonzero;"/><path d="M3818.13,3324.03c29.609,24.334 73.338,20.054 97.667,-9.55l88.117,-107.221c24.333,-29.608 20.054,-73.337 -9.554,-97.666c-29.609,-24.334 -73.334,-20.054 -97.667,9.55l-88.113,107.225c-24.333,29.604 -20.058,73.329 9.55,97.662" style="fill:#9b6b28;fill-rule:nonzero;"/><g opacity="0.15"><path d="M4683.25,3911.71l-224.654,389.163c-29.796,51.579 -65.455,98.604 -105.817,140.425l-0,258.604c-0,123.646 -100.208,223.854 -223.858,223.854l-14.067,-0c-0,219.246 -24.342,414.8 -62.3,542.004c-6.558,21.888 -13.471,41.767 -20.783,59.396c-34.855,-84.338 -61.696,-220.2 -74.617,-382.608c-41.967,30.75 -93.796,48.879 -149.838,48.879l-199.312,-0l-0,-2752.54l224.904,0c86.588,0 170.971,15.529 249.746,44.575c0.2,-0.7 0.346,-1.404 0.546,-2.104c156.8,57.342 291.562,168.217 377.65,317.3l106.262,184.142c-0.896,0.195 -1.8,0.395 -2.7,0.6l118.838,205.87c129.05,223.505 129.05,498.938 -0,722.442" style="fill:#5b3b17;fill-rule:nonzero;"/></g><path d="M4049.25,4633.92c-9.137,20.358 -0.045,44.267 20.313,53.404c20.354,9.138 44.267,0.042 53.4,-20.312c9.142,-20.355 0.046,-44.267 -20.308,-53.405c-20.359,-9.133 -44.267,-0.041 -53.405,20.313" style="fill:#a06f29;fill-rule:nonzero;"/><path d="M3905.97,4569.61c-9.137,20.354 -0.041,44.262 20.313,53.4c20.354,9.142 44.266,0.046 53.404,-20.313c9.137,-20.35 0.046,-44.262 -20.313,-53.4c-20.354,-9.137 -44.266,-0.045 -53.404,20.313" style="fill:#a06f29;fill-rule:nonzero;"/><path d="M4035.3,4478.83c-9.138,20.354 -0.046,44.263 20.312,53.4c20.354,9.142 44.267,0.046 53.4,-20.312c9.142,-20.35 0.046,-44.263 -20.308,-53.4c-20.354,-9.138 -44.267,-0.046 -53.404,20.312" style="fill:#a06f29;fill-rule:nonzero;"/><path d="M3942.83,4583.9l1150.4,0" style="fill:none;fill-rule:nonzero;stroke:#eae4d3;stroke-width:20.83px;"/><path d="M4072.36,4495.37l878.904,-163.596" style="fill:none;fill-rule:nonzero;stroke:#eae4d3;stroke-width:20.83px;"/><path d="M4084.95,4650.47l808.683,150.525" style="fill:none;fill-rule:nonzero;stroke:#eae4d3;stroke-width:20.83px;"/><path d="M4532.2,3332.75l-27.779,63.396c-95.73,218.4 -277.096,286.745 -493.15,185.837l-62.713,-29.292l27.783,-63.395c95.725,-218.4 277.096,-286.746 493.15,-185.838l62.709,29.292Z" style="fill:#fff;fill-rule:nonzero;"/><path d="M4399.47,3382.77c33.112,87.863 -11.275,185.929 -99.138,219.042c-87.862,33.112 -185.933,-11.275 -219.045,-99.142c-33.109,-87.862 11.275,-185.929 99.141,-219.041c87.863,-33.109 185.934,11.275 219.042,99.141" style="fill:#c99836;fill-rule:nonzero;"/><path d="M4310.85,3416.17c14.667,38.921 -4.996,82.362 -43.917,97.029c-38.921,14.671 -82.362,-4.992 -97.033,-43.917c-14.667,-38.921 4.996,-82.366 43.917,-97.029c38.925,-14.671 82.366,4.992 97.033,43.917" style="fill:#220e1d;fill-rule:nonzero;"/><path d="M4550.83,3300.76l-28.559,69.184c-2.454,5.983 -4.975,11.812 -7.562,17.579c-222.129,-90.246 -405.667,-16.525 -503.65,202.304c-5.863,-2.375 -11.713,-4.842 -17.625,-7.458l-68.483,-30.213l28.558,-69.187c98.4,-238.359 292.9,-316.48 528.837,-212.421l68.484,30.212Z" style="fill:#9b6b28;fill-rule:nonzero;"/><path d="M3640.32,4501.65l256.462,-256.466c28.721,-28.721 8.384,-77.825 -32.237,-77.825l-512.929,-0c-40.617,-0 -60.959,49.104 -32.238,77.825l256.467,256.466c17.804,17.8 46.671,17.8 64.475,0" style="fill:#220e1d;fill-rule:nonzero;"/></g></svg>