<?xml version="1.0" encoding="UTF-8" standalone="no"?><!DOCTYPE svg PUBLIC "-//W3C//DTD SVG 1.1//EN" "http://www.w3.org/Graphics/SVG/1.1/DTD/svg11.dtd"><svg width="100%" height="100%" viewBox="0 0 7221 7220" version="1.1" xmlns="http://www.w3.org/2000/svg" xmlnsXlink="http://www.w3.org/1999/xlink" xmlSpace="preserve" xmlnsSerif="http://www.serif.com/" style="fill-rule:evenodd;clip-rule:evenodd;stroke-linejoin:round;stroke-miterlimit:2;"><rect id="MM4" x="0.92" y="0.196" width="7219.25" height="7219.25" style="fill:none;"/><g id="BG"><path d="M5472.91,3265.7c-0,1028.59 -833.838,1862.42 -1862.42,1862.42c-1028.6,-0 -1862.43,-833.838 -1862.43,-1862.42c-0,-1028.59 833.837,-1862.42 1862.43,-1862.42c1028.59,-0 1862.42,833.837 1862.42,1862.42" style="fill:#6bc394;fill-rule:nonzero;"/><path d="M1991.72,4265.37l120.358,-94.217l191.425,-149.858l120.358,-94.217l327.388,-256.291l-16.696,152.266c-57.562,524.592 -395.325,789.005 -918.396,718.955l-151.825,-20.346l327.388,-256.292Z" style="fill:#ab9c7b;fill-rule:nonzero;"/><path d="M5227.5,4265.37l-120.358,-94.217l-191.425,-149.858l-120.359,-94.217l-327.383,-256.291l16.692,152.266c57.562,524.592 395.329,789.005 918.395,718.955l151.825,-20.346l-327.387,-256.292Z" style="fill:#ab9c7b;fill-rule:nonzero;"/><path d="M5227.5,4265.37l-120.358,-94.217l-191.425,-149.858l-120.359,-94.217l-327.383,-256.291l35.358,128.421c121.875,442.441 459.642,706.854 918.396,718.954l133.158,3.5l-327.387,-256.292Z" style="fill:#c1b493;fill-rule:nonzero;"/><path d="M1991.72,4265.37l120.358,-94.217l191.425,-149.858l120.358,-94.217l327.388,-256.291l-35.363,128.421c-121.875,442.441 -459.637,706.854 -918.395,718.954l-133.159,3.5l327.388,-256.292Z" style="fill:#c1b493;fill-rule:nonzero;"/><path d="M4144.45,5255.34l-534.837,207.634l-515.2,-204.692c-189.429,-75.263 -324.054,-246.196 -352.825,-447.988l-197.154,-1382.62l2130.35,0l-172.092,1368.72c-26.05,207.171 -163.596,383.383 -358.246,458.954" style="fill:#dcd2b7;fill-rule:nonzero;"/><path d="M4801.52,3376.65c0,658.45 -533.779,1192.23 -1192.23,1192.23c-658.45,-0 -1192.23,-533.784 -1192.23,-1192.23c0,-658.45 533.784,-1192.23 1192.23,-1192.23c658.454,-0 1192.23,533.783 1192.23,1192.23" style="fill:#dcd2b7;fill-rule:nonzero;"/><path d="M4100.93,5271.74l-491.316,491.317l-491.321,-491.317l491.321,191.237l491.316,-191.237Z" style="fill:#5b5e5d;fill-rule:nonzero;"/><path d="M3831.74,4280.83l-222.133,138.155l-222.134,-138.155l444.267,0Z" style="fill:#c1b493;fill-rule:nonzero;"/><path d="M3434.39,3801.46l-44.467,45.55c-153.204,156.9 -331.454,156.9 -484.658,-0l-44.467,-45.55l44.467,-45.546c153.204,-156.904 331.454,-156.904 484.658,0l44.467,45.546Z" style="fill:#f4f5f6;fill-rule:nonzero;"/><path d="M3261.62,3801.46c-0,62.975 -51.05,114.025 -114.025,114.025c-62.975,-0 -114.025,-51.05 -114.025,-114.025c-0,-62.971 51.05,-114.025 114.025,-114.025c62.975,-0 114.025,51.054 114.025,114.025" style="fill:#80c5b8;fill-rule:nonzero;"/><path d="M3198.11,3801.46c0,27.896 -22.616,50.512 -50.512,50.512c-27.896,0 -50.509,-22.616 -50.509,-50.512c0,-27.896 22.613,-50.508 50.509,-50.508c27.896,-0 50.512,22.612 50.512,50.508" style="fill:#5b5e5d;fill-rule:nonzero;"/><path d="M3434.39,3801.46l-44.467,45.55c-3.838,3.937 -7.675,7.737 -11.542,11.475c-146.683,-141.633 -314.891,-141.633 -461.575,-0c-3.871,-3.738 -7.704,-7.538 -11.541,-11.475l-44.467,-45.55l44.467,-45.546c153.204,-156.904 331.454,-156.904 484.658,0l44.467,45.546Z" style="fill:#c1b493;fill-rule:nonzero;"/><path d="M4358.42,3801.46l-44.467,45.55c-153.204,156.9 -331.454,156.9 -484.658,-0l-44.467,-45.55l44.467,-45.546c153.204,-156.904 331.454,-156.904 484.658,0l44.467,45.546Z" style="fill:#f4f5f6;fill-rule:nonzero;"/><path d="M4185.65,3801.46c0,62.975 -51.05,114.025 -114.025,114.025c-62.971,-0 -114.025,-51.05 -114.025,-114.025c0,-62.971 51.054,-114.025 114.025,-114.025c62.975,-0 114.025,51.054 114.025,114.025" style="fill:#80c5b8;fill-rule:nonzero;"/><path d="M4122.14,3801.46c-0,27.896 -22.617,50.512 -50.513,50.512c-27.896,0 -50.508,-22.616 -50.508,-50.512c-0,-27.896 22.612,-50.508 50.508,-50.508c27.896,-0 50.513,22.612 50.513,50.508" style="fill:#5b5e5d;fill-rule:nonzero;"/><path d="M4358.42,3801.46l-44.467,45.55c-3.838,3.937 -7.675,7.737 -11.542,11.475c-146.687,-141.633 -314.891,-141.633 -461.575,-0c-3.866,-3.738 -7.704,-7.538 -11.541,-11.475l-44.467,-45.55l44.467,-45.546c153.204,-156.904 331.454,-156.904 484.658,0l44.467,45.546Z" style="fill:#c1b493;fill-rule:nonzero;"/><path d="M2560.6,4084.47l-382.275,-1340.45l271.071,-109.05l70.483,-23.934l67.95,-332.975l1023.31,-474.837l979.912,459.071l83.746,388.958l263.671,185.521l-263.671,1247.7l-143.692,-119.783l59.946,-648.184l-311.279,-329.704l-133.763,-326.558l-974.541,6.979l-329.892,319.579l-275.412,142.288l171.545,835.6l-177.104,119.783Z" style="fill:#5b5e5d;fill-rule:nonzero;"/><path d="M3469.3,3427.67l-47.563,168.816l-260.829,-84.408l-307.975,144.783l-101.687,-165.237l387.679,-152.534l330.375,88.58Z" style="fill:#5b5e5d;fill-rule:nonzero;"/><path d="M3749.93,3427.67l47.558,168.816l260.83,-84.408l307.975,144.783l101.687,-165.237l-387.679,-152.534l-330.371,88.58Z" style="fill:#5b5e5d;fill-rule:nonzero;"/><path d="M3068.86,4780.08l-23.7,74.333l254.746,-190.804l219.046,-9.625l57.683,-31.992l-23.77,-81.954l-290.167,46.846l-193.838,193.196Z" style="fill:#5b5e5d;fill-rule:nonzero;"/><path d="M4147.24,4780.08l23.7,74.333l-254.75,-190.804l-219.041,-9.625l-57.688,-31.992l23.771,-81.954l290.171,46.846l193.837,193.196Z" style="fill:#5b5e5d;fill-rule:nonzero;"/><path d="M3307.31,2313.66l-206.816,-738.075l-401.975,-69.179l-394.334,268.117l-63.725,430.612l-81.558,297.483l-214.458,-415.087l-76.1,484.267l206.908,450.633l157.175,-88.704l-54.104,-189.713l271.071,-109.05l54.733,-422.912l83.742,-207.542l138.32,6.921l103.775,491.187l284.346,-41.691l193,-147.267Z" style="fill:#e5cc8c;fill-rule:nonzero;"/><path d="M2587.87,2004.51l138.321,6.921l-422.005,-236.904l-63.729,430.608l-81.554,297.483l116.379,202.392l174.109,-70.042l54.733,-422.912l83.746,-207.546Z" style="fill:#d2b475;fill-rule:nonzero;"/><g opacity="0.1"><path d="M3611.13,5462.85l0,0.004l0.329,0.125l-0.329,-0.129Z" style="fill:#0b0c0b;fill-rule:nonzero;"/><path d="M5229.35,4265.37l-120.354,-94.217l-191.429,-149.858l-120.358,-94.217l-74.917,-58.654l32.567,-154.116c17.308,-58.721 30.212,-119.33 38.341,-181.442l147.105,-696.1l-263.667,-185.521l-83.75,-388.958l-981.758,-459.071l-0,3659.63l0.329,0.129l-0.329,-0.125l-0,299.875l0.329,0.325l490.5,-490.495l44.337,-17.213c194.65,-75.571 332.2,-251.783 358.246,-458.958l78.596,-625.117c144.579,289.108 431.608,422.992 821.779,370.738l151.821,-20.346l-327.388,-256.292Z" style="fill:#0b0c0b;fill-rule:nonzero;"/></g><path d="M3914.95,2350.8l206.821,-738.075l401.971,-69.179l394.337,268.116l63.725,430.613l81.554,297.483l214.463,-415.087l76.1,484.266l-206.909,450.634l-227.987,-122.113l19.433,-100.696l-167.104,-117.57l-53.217,-470l-83.745,-207.542l-138.317,6.921l-103.771,491.187l-284.35,-41.691l-193.004,-147.267Z" style="fill:#e5cc8c;fill-rule:nonzero;"/><path d="M4634.39,2041.65l-138.317,6.921l422.005,-236.905l63.725,430.609l81.554,297.483l-157.05,273.083l-134.954,-93.65l-53.217,-469.995l-83.746,-207.546Z" style="fill:#d2b475;fill-rule:nonzero;"/><path d="M3609.61,4780.07c57.517,-0 104.146,46.625 104.146,104.145l157.8,0l-40.612,-41.6c-139.934,-143.312 -302.738,-143.312 -442.667,0l-40.617,41.6l157.804,0c0,-57.52 46.625,-104.145 104.146,-104.145" style="fill:#c1b493;fill-rule:nonzero;"/><path d="M3713.76,4884.21c-0,57.516 -46.629,104.146 -104.146,104.146c-57.521,-0 -104.146,-46.63 -104.146,-104.146l-157.804,-0l40.617,41.596c139.929,143.312 302.733,143.312 442.666,-0l40.613,-41.596l-157.8,-0Z" style="fill:#ab9c7b;fill-rule:nonzero;"/><path d="M3655.75,4884.21c-0,25.475 -20.659,46.133 -46.134,46.133c-25.479,0 -46.137,-20.658 -46.137,-46.133l-58.008,-0c-0,57.516 46.625,104.146 104.145,104.146c57.513,-0 104.146,-46.63 104.146,-104.146l-58.012,-0Z" style="fill:#ab9c7b;fill-rule:nonzero;"/><path d="M3609.61,4780.07c-57.521,-0 -104.146,46.625 -104.146,104.145l58.013,0c-0,-25.479 20.654,-46.133 46.133,-46.133c25.475,0 46.134,20.654 46.134,46.133l58.012,0c0,-57.52 -46.629,-104.145 -104.146,-104.145" style="fill:#c1b493;fill-rule:nonzero;"/><path d="M3609.61,4838.08c-25.479,0 -46.133,20.654 -46.133,46.134l92.267,-0c-0,-25.48 -20.659,-46.134 -46.134,-46.134" style="fill:#c1b493;fill-rule:nonzero;"/><path d="M3609.61,4930.35c25.475,-0 46.134,-20.658 46.134,-46.133l-92.267,-0c-0,25.475 20.654,46.133 46.133,46.133" style="fill:#ab9c7b;fill-rule:nonzero;"/></g></svg>