<?xml version="1.0" encoding="UTF-8" standalone="no"?><!DOCTYPE svg PUBLIC "-//W3C//DTD SVG 1.1//EN" "http://www.w3.org/Graphics/SVG/1.1/DTD/svg11.dtd"><svg width="100%" height="100%" viewBox="0 0 7220 7220" version="1.1" xmlns="http://www.w3.org/2000/svg" xmlnsXlink="http://www.w3.org/1999/xlink" xmlSpace="preserve" xmlnsSerif="http://www.serif.com/" style="fill-rule:evenodd;clip-rule:evenodd;stroke-linejoin:round;stroke-miterlimit:2;"><rect id="MM7" x="0.754" y="0.233" width="7219.25" height="7219.25" style="fill:none;"/><g id="BG"><path d="M5563.1,3219.7c-0,1035.6 -839.517,1875.11 -1875.11,1875.11c-1035.6,-0 -1875.11,-839.517 -1875.11,-1875.11c-0,-1035.6 839.516,-1875.11 1875.11,-1875.11c1035.6,-0 1875.11,839.512 1875.11,1875.11" style="fill:#c080b7;fill-rule:nonzero;"/><path d="M3939.12,1550.01l-1297.96,3035.62l-46.788,14.83c-238.541,75.5 -492.296,-61.125 -560.583,-301.83l14.454,-101.166c34.792,-33.463 64.921,-64.625 89.458,-92.459c12.709,-14.462 23.88,-27.958 33.459,-40.458c-31.334,13.375 -69.329,33.121 -112.204,58.121l1.329,-9.329c26.166,-183.084 61.171,-364.25 104.754,-542.921l-0,-0.038c64.083,-57.375 117.708,-110.5 156.958,-155.041c12.704,-14.459 23.871,-27.959 33.454,-40.5c-43.329,18.541 -99.333,49.166 -163.375,89.208c70.834,-268.125 161.125,-530.254 269.838,-784.421c58.079,-15.662 109.121,-31.704 150.746,-47.329c18.041,-6.75 34.25,-13.417 48.587,-19.958c-43.625,-3.75 -101.837,-3.5 -170.379,0.75c165.708,-374.167 371.792,-730.459 615.25,-1062.3c46.921,12.046 89.463,21.375 126.129,27.671c18.954,3.246 36.329,5.662 51.996,7.246c-34.829,-24.58 -83.542,-52.792 -142.621,-82.746c61.084,-81.542 124.496,-161.546 190.121,-239.917l607.375,286.958Z" style="fill:#eaeaeb;fill-rule:nonzero;"/><path d="M3001.71,5512.16l0.004,0c222.133,82.838 469.354,-30.087 552.187,-252.216l642.167,-1722.04c82.833,-222.133 -30.087,-469.358 -252.221,-552.191l-595.587,-222.096c-222.134,-82.838 -469.354,30.083 -552.192,252.216l-420.062,1126.45c-205.496,551.063 74.641,1164.38 625.704,1369.88" style="fill:#bfbebe;fill-rule:nonzero;"/><path d="M4681.57,3812.61l-121.738,154.867c-61.404,78.116 -105.141,179.808 -125.787,292.479l-187.213,1172.19l-922.8,0l-180.325,-1166.63c-20.616,-116.146 -65.716,-220.854 -129.404,-300.425l-119.817,-149.704c-105.354,-131.634 -157.129,-328.254 -138.104,-524.454l60.554,-624.405c35.038,-361.25 338.655,-636.841 701.596,-636.841l540.713,-0c364.921,-0 669.504,278.512 702.075,641.979l56.096,626.058c17.241,192.467 -33.459,384.642 -135.846,514.892" style="fill:#dbdad9;fill-rule:nonzero;"/><path d="M4241.87,1263.01l-0,0.042l-33.834,372.041c-34.75,42.667 -64.25,81.871 -87.375,116.125c-10.791,15.959 -20.125,30.75 -28.037,44.417c30.329,-17.833 66.829,-43.296 107.666,-75l-43.212,475.287l-727.583,0l-98.125,-932.87c298.916,-74.625 611.583,-74.625 910.5,-0.042" style="fill:#eaeaeb;fill-rule:nonzero;"/><path d="M2934.35,3011.59l-14.617,74.583c-50.329,256.963 70.529,432.15 328.617,476.338l74.917,12.821l14.616,-74.588c50.329,-256.958 -70.529,-432.142 -328.621,-476.333l-74.912,-12.821Z" style="fill:#f4f5f6;fill-rule:nonzero;"/><path d="M3051.49,3181.4c-61.892,42.7 -77.45,127.487 -34.754,189.379c42.7,61.896 127.491,77.454 189.383,34.754c61.892,-42.696 77.45,-127.488 34.754,-189.379c-42.7,-61.896 -127.491,-77.454 -189.383,-34.754" style="fill:#d69dc7;fill-rule:nonzero;"/><path d="M3094.56,3243.82c-27.417,18.917 -34.308,56.475 -15.392,83.896c18.913,27.417 56.471,34.304 83.888,15.392c27.421,-18.913 34.312,-56.475 15.396,-83.892c-18.913,-27.417 -56.475,-34.308 -83.892,-15.396" style="fill:#5b5e5d;fill-rule:nonzero;"/><path d="M2934.35,3011.59l-14.617,74.583c-1.271,6.446 -2.404,12.796 -3.45,19.125c238.654,48.138 352.704,213.454 312.963,453.646c6.296,1.275 12.633,2.467 19.104,3.567l74.917,12.821l14.616,-74.588c50.329,-256.958 -70.529,-432.142 -328.621,-476.333l-74.912,-12.821Z" style="fill:#bfbebe;fill-rule:nonzero;"/><path d="M4633.21,3011.59l14.613,74.583c50.329,256.963 -70.529,432.15 -328.617,476.338l-74.912,12.821l-14.617,-74.588c-50.329,-256.958 70.529,-432.142 328.621,-476.333l74.912,-12.821Z" style="fill:#f4f5f6;fill-rule:nonzero;"/><path d="M4516.07,3181.4c61.891,42.7 77.454,127.487 34.754,189.379c-42.7,61.896 -127.488,77.454 -189.379,34.754c-61.896,-42.696 -77.454,-127.488 -34.754,-189.379c42.7,-61.896 127.487,-77.454 189.379,-34.754" style="fill:#d69dc7;fill-rule:nonzero;"/><path d="M4473,3243.82c27.417,18.917 34.309,56.475 15.396,83.896c-18.916,27.417 -56.471,34.304 -83.887,15.392c-27.421,-18.913 -34.313,-56.475 -15.4,-83.892c18.916,-27.417 56.475,-34.308 83.891,-15.396" style="fill:#5b5e5d;fill-rule:nonzero;"/><path d="M4633.21,3011.59l14.613,74.583c1.275,6.446 2.408,12.796 3.45,19.125c-238.65,48.138 -352.7,213.454 -312.963,453.646c-6.291,1.275 -12.629,2.467 -19.104,3.567l-74.912,12.821l-14.617,-74.588c-50.329,-256.958 70.529,-432.142 328.621,-476.333l74.912,-12.821Z" style="fill:#bfbebe;fill-rule:nonzero;"/><path d="M4532.81,2376.48l-279.483,-129.041c-40.438,-236.155 76.537,-419.83 332.195,-510.559l87.367,-30.979l33.088,86.592c96.75,253.441 32.816,461.604 -173.167,583.987" style="fill:#dbdad9;fill-rule:nonzero;"/><path d="M4510.11,2346.93l-201.863,-93.2c-29.208,-170.575 55.279,-303.242 239.938,-368.767l63.1,-22.379l23.896,62.546c69.883,183.054 23.704,333.404 -125.071,421.8" style="fill:#bfbebe;fill-rule:nonzero;"/><path d="M3047.87,2376.48l279.479,-129.041c40.438,-236.155 -76.533,-419.83 -332.195,-510.559l-87.367,-30.979l-33.083,86.592c-96.755,253.441 -32.821,461.604 173.166,583.987" style="fill:#dbdad9;fill-rule:nonzero;"/><path d="M3077.46,2346.93l201.863,-93.2c29.208,-170.575 -55.279,-303.242 -239.942,-368.767l-63.1,-22.379l-23.896,62.546c-69.883,183.054 -23.7,333.404 125.075,421.8" style="fill:#bfbebe;fill-rule:nonzero;"/><path d="M3077.46,2346.93c21.129,6.725 66.159,-1.667 111.438,-21.458c43.246,-18.909 79.312,-52.05 90.425,-71.742" style="fill:#bfbebe;fill-rule:nonzero;"/><path d="M4510.16,2346.93c-21.13,6.725 -66.159,-1.667 -111.438,-21.458c-43.246,-18.909 -79.312,-52.05 -90.425,-71.742" style="fill:#bfbebe;fill-rule:nonzero;"/><g opacity="0.1"><path d="M4686.2,3812.6l-121.708,154.875c-61.413,78.125 -105.163,179.833 -125.788,292.5l-174.587,1093.13c13.583,27.162 23.004,56.912 27.291,88.454l1.209,8.75c5.333,39.463 2.291,79.625 -8.917,117.833l-29.458,100.088c-35.375,120.371 -145.834,202.996 -271.246,202.996l-191.754,-0l-0,-3841.54l272.629,0c68.537,0 134.954,9.829 197.829,28.204c34.542,-144.458 146.254,-256.329 328.458,-321l87.375,-30.995l33.084,86.625c81.004,212.166 49.291,392.541 -84,517.495c77.041,101.963 127.171,225.875 139.337,361.671l56.084,626.042c17.245,192.454 -33.421,384.621 -135.838,514.871" style="fill:#201c12;fill-rule:nonzero;"/></g><path d="M4082.42,2507.07l-584.175,0c0,-903.854 117.479,-1693.06 292.088,-2115.25c25.633,62.117 50.087,131.958 73.075,208.942c133.521,447.525 219.012,1135.1 219.012,1906.31" style="fill:#fafbfc;fill-rule:nonzero;"/><path d="M4082.42,2507.07c0,161.317 -130.771,292.088 -292.087,292.088c-161.313,-0 -292.088,-130.771 -292.088,-292.088c0,-161.317 130.775,-292.092 292.088,-292.092c161.316,0 292.087,130.775 292.087,292.092" style="fill:#fafbfc;fill-rule:nonzero;"/><path d="M4246.84,5432.15l-926.113,0l149.809,-1814.52c13.562,-164.284 150.854,-290.704 315.695,-290.704c165.167,-0 302.613,126.904 315.763,291.55l144.846,1813.67Z" style="fill:#eaeaeb;fill-rule:nonzero;"/><path d="M3978.34,5871.23l-382.479,0c-127.821,0 -239.741,-85.75 -273.008,-209.162l-22.971,-85.213c-8.604,-31.908 -11.546,-65.075 -8.692,-97.996l2.046,-23.625c12.659,-146.158 135,-258.358 281.704,-258.358l431.655,-0c141.45,-0 261.141,104.533 280.179,244.7l1.187,8.725c5.363,39.462 2.325,79.612 -8.912,117.825l-29.442,100.117c-35.387,120.345 -145.833,202.987 -271.267,202.987" style="fill:#342f1f;fill-rule:nonzero;"/><path d="M4152.88,5473.61c0,56.23 -45.583,101.813 -101.812,101.813c-56.229,-0 -101.809,-45.583 -101.809,-101.813c0,-56.229 45.58,-101.812 101.809,-101.812c56.229,-0 101.812,45.583 101.812,101.812" style="fill:#201c12;fill-rule:nonzero;"/><path d="M3631.42,5473.61c0,56.23 -45.579,101.813 -101.812,101.813c-56.229,-0 -101.809,-45.583 -101.809,-101.813c0,-56.229 45.58,-101.812 101.809,-101.812c56.233,-0 101.812,45.583 101.812,101.812" style="fill:#201c12;fill-rule:nonzero;"/></g></svg>